<svg width="32" height="32" viewBox="0 0 32 32" fill="none" xmlns="http://www.w3.org/2000/svg">
<circle cx="16" cy="16" r="16" fill="#1769FF"/>
<path d="M14.0556 15.325C15.1597 14.7778 15.7361 13.9497 15.7361 12.6609C15.7361 10.1192 13.9097 9.5 11.8021 9.5H6V22.2588H11.9653C14.2014 22.2588 16.3021 21.1464 16.3021 18.5543C16.3021 16.9522 15.5694 15.7678 14.0556 15.325ZM8.70486 11.6781H11.2431C12.2188 11.6781 13.0972 11.9625 13.0972 13.1361C13.0972 14.2197 12.4132 14.6554 11.4479 14.6554H8.70486V11.6781ZM11.5972 20.0915H8.70486V16.5778H11.6528C12.8438 16.5778 13.5972 17.0926 13.5972 18.3995C13.5972 19.6883 12.6979 20.0915 11.5972 20.0915ZM24.0451 11.4261H19.0556V10.1696H24.0451V11.4261ZM26 17.7731C26 15.0406 24.4583 12.7617 21.6632 12.7617C18.9479 12.7617 17.1042 14.8786 17.1042 17.6507C17.1042 20.5271 18.8507 22.5 21.6632 22.5C23.7917 22.5 25.1701 21.5064 25.8333 19.3931H23.6736C23.441 20.1815 22.4826 20.5991 21.7396 20.5991C20.3056 20.5991 19.5521 19.7279 19.5521 18.2483H25.9792C25.9896 18.0971 26 17.9351 26 17.7731ZM19.5556 16.6498C19.6354 15.4366 20.4132 14.677 21.5868 14.677C22.816 14.677 23.434 15.4258 23.5382 16.6498H19.5556Z" fill="white"/>
</svg>
