<svg width="12" height="14" viewBox="0 0 12 14" fill="none" xmlns="http://www.w3.org/2000/svg">
<path d="M11.4316 1.79394L6.073 0.031953C6.00835 0.010651 5.92161 0 5.83488 0C5.74814 0 5.66141 0.010651 5.59675 0.031953L0.238126 1.79394C0.107236 1.83654 0 1.98261 0 2.11651V9.45658C0 9.59048 0.0898887 9.76698 0.198701 9.85067L5.6346 13.9376C5.68979 13.9787 5.76076 14 5.8333 14C5.90584 14 5.97838 13.9787 6.032 13.9376L11.4679 9.85067C11.5767 9.7685 11.6666 9.592 11.6666 9.45658V2.11651C11.6698 1.98261 11.5625 1.83806 11.4316 1.79394ZM8.71289 4.39278L5.3602 8.84643C5.33663 8.87756 5.30578 8.90288 5.27016 8.92033C5.23454 8.93779 5.19515 8.94689 5.15519 8.94689C5.11524 8.94689 5.07585 8.93779 5.04023 8.92033C5.0046 8.90288 4.97375 8.87756 4.95018 8.84643L2.95686 6.19889C2.89694 6.11825 2.95686 6.00565 3.05937 6.00565H3.92987C4.0103 6.00565 4.08757 6.04369 4.13488 6.10608L5.15519 7.46028L7.53488 4.29845C7.58219 4.23606 7.65788 4.19802 7.73988 4.19802H8.61039C8.71289 4.19954 8.77282 4.31214 8.71289 4.39278Z" fill="#0D2F3F"/>
</svg>
