<svg width="10" height="12" viewBox="0 0 10 12" fill="none" xmlns="http://www.w3.org/2000/svg">
<path d="M9.79854 1.53766L5.20543 0.0273883C5.15001 0.00912942 5.07567 0 5.00132 0C4.92698 0 4.85263 0.00912942 4.79721 0.0273883L0.204108 1.53766C0.0919163 1.57418 0 1.69938 0 1.81415V8.10564C0 8.22041 0.0770475 8.3717 0.170315 8.44343L4.82966 11.9465C4.87697 11.9817 4.93779 12 4.99997 12C5.06215 12 5.12433 11.9817 5.17029 11.9465L9.82963 8.44343C9.92289 8.373 9.99994 8.22171 9.99994 8.10564V1.81415C10.0026 1.69938 9.91073 1.57548 9.79854 1.53766ZM7.46819 3.76524L4.59446 7.58265C4.57426 7.60933 4.54781 7.63104 4.51728 7.646C4.48674 7.66096 4.45298 7.66876 4.41874 7.66876C4.38449 7.66876 4.35073 7.66096 4.32019 7.646C4.28966 7.63104 4.26322 7.60933 4.24301 7.58265L2.53445 5.31334C2.48309 5.24421 2.53445 5.1477 2.62232 5.1477H3.36846C3.4374 5.1477 3.50363 5.18031 3.54418 5.23378L4.41874 6.39452L6.45847 3.68438C6.49902 3.63091 6.5639 3.5983 6.63419 3.5983H7.38033C7.46819 3.59961 7.51956 3.69612 7.46819 3.76524Z" fill="#FCB26D"/>
</svg>
