<svg width="14" height="16" viewBox="0 0 14 16" fill="none" xmlns="http://www.w3.org/2000/svg">
<path d="M8.14537 0C3.64446 0 0 3.58214 0 8C0 12.4179 3.64446 16 8.14537 16C10.3539 16 12.3547 15.1357 13.8234 13.7357C14.0057 13.5607 14.053 13.2893 13.9364 13.0679C13.8198 12.8464 13.5683 12.7214 13.3169 12.7643C12.9597 12.825 12.5953 12.8571 12.2199 12.8571C8.6884 12.8571 5.82385 10.0429 5.82385 6.57143C5.82385 4.22143 7.13586 2.175 9.07836 1.09643C9.30067 0.971429 9.41365 0.721429 9.35898 0.478572C9.30431 0.235714 9.09293 0.0535715 8.83782 0.0321429C8.60822 0.0142858 8.37862 0.00357137 8.14537 0.00357137V0Z" fill="white"/>
</svg>
