<svg width="16" height="16" viewBox="0 0 16 16" fill="none" xmlns="http://www.w3.org/2000/svg">
<path d="M8 13.0385C7.67308 13.0385 7.40769 13.3038 7.40769 13.6308V15.4077C7.40769 15.7346 7.67308 16 8 16C8.32692 16 8.59231 15.7346 8.59231 15.4077V13.6308C8.59231 13.3038 8.32692 13.0385 8 13.0385V13.0385ZM8 0C7.67308 0 7.40769 0.265385 7.40769 0.592308V2.36923C7.40769 2.69615 7.67308 2.96154 8 2.96154C8.32692 2.96154 8.59231 2.69615 8.59231 2.36923V0.592308C8.59231 0.265385 8.32692 0 8 0V0ZM2.96154 8C2.96154 7.67308 2.69615 7.40769 2.36923 7.40769H0.592308C0.265385 7.40769 0 7.67308 0 8C0 8.32692 0.265385 8.59231 0.592308 8.59231H2.36923C2.69615 8.59231 2.96154 8.32692 2.96154 8V8ZM15.4077 7.40769H13.6308C13.3038 7.40769 13.0385 7.67308 13.0385 8C13.0385 8.32692 13.3038 8.59231 13.6308 8.59231H15.4077C15.7346 8.59231 16 8.32692 16 8C16 7.67308 15.7346 7.40769 15.4077 7.40769V7.40769ZM4.01923 11.3885C3.86154 11.3885 3.71154 11.45 3.6 11.5615L2.34231 12.8192C2.23077 12.9308 2.16923 13.0808 2.16923 13.2385C2.16923 13.3962 2.23077 13.5462 2.34231 13.6577C2.45385 13.7692 2.60385 13.8308 2.76154 13.8308C2.91923 13.8308 3.06923 13.7692 3.18077 13.6577L4.43846 12.4C4.66923 12.1692 4.66923 11.7923 4.43846 11.5615C4.32692 11.45 4.17692 11.3885 4.01923 11.3885V11.3885ZM11.9808 4.61154C12.1385 4.61154 12.2885 4.55 12.4 4.43846L13.6577 3.18077C13.7692 3.06923 13.8308 2.91923 13.8308 2.76154C13.8308 2.60385 13.7692 2.45385 13.6577 2.34231C13.5462 2.23077 13.3962 2.16923 13.2385 2.16923C13.0808 2.16923 12.9308 2.23077 12.8192 2.34231L11.5615 3.6C11.45 3.71154 11.3885 3.86154 11.3885 4.01923C11.3885 4.17692 11.45 4.32692 11.5615 4.43846C11.6731 4.55 11.8231 4.61154 11.9808 4.61154V4.61154ZM3.18077 2.34231C3.06923 2.23077 2.91923 2.16923 2.76154 2.16923C2.60385 2.16923 2.45385 2.23077 2.34231 2.34231C2.23077 2.45385 2.16923 2.60385 2.16923 2.76154C2.16923 2.91923 2.23077 3.06923 2.34231 3.18077L3.6 4.43846C3.71154 4.55 3.86154 4.61154 4.01923 4.61154C4.17692 4.61154 4.32692 4.55 4.43846 4.43846C4.55 4.32692 4.61154 4.17692 4.61154 4.01923C4.61154 3.86154 4.55 3.71154 4.43846 3.6L3.18077 2.34231V2.34231ZM12.4 11.5615C12.2885 11.45 12.1385 11.3885 11.9808 11.3885C11.8231 11.3885 11.6731 11.45 11.5615 11.5615C11.3308 11.7923 11.3308 12.1692 11.5615 12.4L12.8192 13.6577C12.9308 13.7692 13.0808 13.8308 13.2385 13.8308C13.3962 13.8308 13.5462 13.7692 13.6577 13.6577C13.7692 13.5462 13.8308 13.3962 13.8308 13.2385C13.8308 13.0808 13.7692 12.9308 13.6577 12.8192L12.4 11.5615V11.5615ZM8 4.30769C5.96538 4.30769 4.30769 5.96538 4.30769 8C4.30769 10.0346 5.96538 11.6923 8 11.6923C10.0346 11.6923 11.6923 10.0346 11.6923 8C11.6923 5.96538 10.0346 4.30769 8 4.30769Z" fill="#0D2F3F"/>
</svg>
