<svg width="12" height="12" viewBox="0 0 12 12" fill="none" xmlns="http://www.w3.org/2000/svg">
<path d="M3.91477 7.25016C2.97445 7.31063 2.12109 7.66875 1.63688 8.94469C1.5818 9.09023 1.44938 9.17859 1.29492 9.17859C1.03453 9.17859 0.229453 8.53008 0 8.37352C0.000234375 10.3036 0.889219 12 3.00023 12C4.7782 12 6.00023 10.9741 6.00023 9.18305C6.00023 9.11016 5.985 9.04055 5.9775 8.96906L3.91477 7.25016ZM10.732 0C10.3767 0 10.0437 0.157266 9.78961 0.385547C4.99875 4.66523 4.50023 4.76578 4.50023 6.02555C4.50023 6.34664 4.57641 6.65273 4.70484 6.93258L6.20062 8.17898C6.36961 8.22117 6.54375 8.25 6.72539 8.25C8.18109 8.25 9.02484 7.1843 11.6745 2.23922C11.8474 1.90289 12.0002 1.53961 12.0002 1.16133C12.0002 0.48375 11.3909 0 10.732 0Z" fill="#FCB26D"/>
</svg>
