<svg width="11" height="14" viewBox="0 0 11 14" fill="none" xmlns="http://www.w3.org/2000/svg">
<path d="M7.18429 3.46492H10.3274C10.4241 3.46492 10.5001 3.38792 10.5001 3.28992C10.5001 2.97842 10.3654 2.68442 10.1305 2.48842L7.49514 0.262418C7.29481 0.094418 7.04613 0.00341797 6.78363 0.00341797C6.64202 0.00341797 6.52804 0.118918 6.52804 0.262418V2.79992C6.52804 3.16742 6.82162 3.46492 7.18429 3.46492Z" fill="#0D2F3F"/>
<path d="M5.62993 2.8V0H1.10526C0.497368 0 0 0.504 0 1.12V12.88C0 13.496 0.497368 14 1.10526 14H9.39474C10.0026 14 10.5 13.496 10.5 12.88V4.375H7.18421C6.32763 4.375 5.62993 3.668 5.62993 2.8Z" fill="#0D2F3F"/>
</svg>
