<svg width="9" height="12" viewBox="0 0 9 12" fill="none" xmlns="http://www.w3.org/2000/svg">
<path d="M6.15796 2.96993H8.85204C8.93493 2.96993 9.00006 2.90393 9.00006 2.81993C9.00006 2.55293 8.8846 2.30093 8.68329 2.13293L6.42441 0.22493C6.2527 0.0809297 6.03954 0.00292969 5.81454 0.00292969C5.69316 0.00292969 5.59546 0.10193 5.59546 0.22493V2.39993C5.59546 2.71493 5.8471 2.96993 6.15796 2.96993Z" fill="white"/>
<path d="M4.82566 2.4V0H0.947368C0.426316 0 0 0.432 0 0.96V11.04C0 11.568 0.426316 12 0.947368 12H8.05263C8.57368 12 9 11.568 9 11.04V3.75H6.1579C5.42368 3.75 4.82566 3.144 4.82566 2.4Z" fill="white"/>
</svg>
