<svg width="32" height="32" viewBox="0 0 32 32" fill="none" xmlns="http://www.w3.org/2000/svg">
<circle cx="16" cy="16" r="16" fill="#E8508A"/>
<path d="M16 6C10.486 6 6 10.486 6 16C6 21.514 10.486 26 16 26C21.514 26 26 21.514 26 16C26 10.486 21.514 6 16 6ZM22.6117 10.6115C23.8013 12.065 24.5217 13.9162 24.5405 15.9323C24.2589 15.8727 21.435 15.3 18.5929 15.6574C18.3609 15.0912 18.142 14.5931 17.8422 13.9794C21.0003 12.69 22.4316 10.8551 22.6117 10.6115ZM21.6621 9.62379C21.5085 9.84262 20.2227 11.5708 17.1855 12.7092C15.7858 10.1376 14.2345 8.02504 13.9984 7.70891C16.7071 7.05597 19.5615 7.76012 21.6621 9.62379ZM12.3686 8.28306C12.5938 8.5919 14.1201 10.7071 15.5354 13.2229C11.54 14.284 8.02089 14.2687 7.63887 14.2636C8.19274 11.6131 9.97895 9.4102 12.3686 8.28306ZM7.45847 16.013C7.45847 15.9257 7.4602 15.8387 7.46282 15.752C7.83653 15.7597 11.9757 15.813 16.2413 14.5365C16.4858 15.015 16.7194 15.5008 16.9338 15.986C13.8451 16.856 11.0389 19.354 9.65431 21.7242C8.29008 20.2099 7.45847 18.2069 7.45847 16.013ZM10.7571 22.7515C11.6494 20.9275 14.0708 18.5731 17.5144 17.3984C18.7135 20.5146 19.2095 23.1263 19.3365 23.8757C16.59 25.0456 13.2875 24.7246 10.7571 22.7515ZM20.7725 23.0937C20.6849 22.5742 20.2303 20.0737 19.1131 17.0037C21.7897 16.5752 24.1413 17.2766 24.4335 17.3688C24.0528 19.7455 22.6887 21.798 20.7725 23.0937Z" fill="white"/>
</svg>
