<svg width="48" height="48" viewBox="0 0 48 48" fill="none" xmlns="http://www.w3.org/2000/svg">
<path d="M28.5056 2.25C28.5056 3.49688 29.5089 4.5 30.756 4.5H40.3298L19.41 25.4062C18.5286 26.2875 18.5286 27.7125 19.41 28.5844C20.2915 29.4562 21.7167 29.4656 22.5888 28.5844L43.4991 7.67813V17.25C43.4991 18.4969 44.5024 19.5 45.7496 19.5C46.9967 19.5 48 18.4969 48 17.25V2.25C48 1.00312 46.9967 0 45.7496 0H30.756C29.5089 0 28.5056 1.00312 28.5056 2.25ZM6.75132 3C3.01934 3 0 6.01875 0 9.75V41.25C0 44.9812 3.01934 48 6.75132 48H38.2575C41.9895 48 45.0088 44.9812 45.0088 41.25V29.25C45.0088 28.0031 44.0055 27 42.7584 27C41.5112 27 40.5079 28.0031 40.5079 29.25V41.25C40.5079 42.4969 39.5046 43.5 38.2575 43.5H6.75132C5.5042 43.5 4.50088 42.4969 4.50088 41.25V9.75C4.50088 8.50312 5.5042 7.5 6.75132 7.5H18.7537C20.0008 7.5 21.0041 6.49688 21.0041 5.25C21.0041 4.00312 20.0008 3 18.7537 3H6.75132Z" fill="white"/>
</svg>
