<svg width="13" height="14" viewBox="0 0 13 14" fill="none" xmlns="http://www.w3.org/2000/svg">
<path d="M2.61918 13.234C2.61039 12.796 2.9947 12.4375 3.45364 12.4375H5.23807V12.2813H1.63259C1.17365 12.2813 0.789342 11.9228 0.798136 11.4848C0.806644 11.0603 1.16973 10.7187 1.61641 10.7187H5.23807V10.5625H0.834602C0.375667 10.5625 -0.00864628 10.204 0.000148003 9.76599C0.00865582 9.34156 0.371771 9.00001 0.818446 9.00001H5.2381V8.84377H1.65304C1.19411 8.84377 0.809795 8.48527 0.818589 8.04728C0.827097 7.62285 1.19021 7.2813 1.63689 7.2813H6.46561L5.57515 6.66317C5.20957 6.40939 5.12876 5.92081 5.39462 5.57183C5.66049 5.22289 6.17236 5.14576 6.53794 5.39951L10.0717 7.85265C10.197 7.93962 10.299 8.05365 10.3693 8.18542C10.4395 8.31719 10.4762 8.46296 10.4762 8.61083V12.47C10.4762 12.905 10.1626 13.2829 9.719 13.3826L7.41384 13.9003C7.11894 13.9665 6.817 14 6.51405 14H3.43748C2.99081 14 2.62769 13.6584 2.61918 13.234ZM4.71746 7.06249H5.76083L5.44037 6.84003C4.90816 6.47059 4.85849 5.72202 5.34956 5.29412L4.97705 4.83748C4.69509 4.49183 4.16265 4.42265 3.80601 4.69836C3.4604 4.96553 3.40116 5.44886 3.67558 5.78527L4.71746 7.06249ZM12.8328 7.00499L12.6895 2.83639C12.6746 2.40515 12.2964 2.06705 11.8446 2.08118C11.3928 2.09535 11.0386 2.45639 11.0534 2.88763L11.0896 3.93804L8.12294 0.301301C7.84851 -0.0351089 7.34311 -0.0987377 6.98705 0.155613C6.61961 0.418086 6.55939 0.927799 6.84135 1.27345L9.04391 3.9735L8.91474 4.06951L6.1994 0.740851C5.92497 0.404441 5.41957 0.340812 5.06351 0.595163C4.69606 0.857635 4.63585 1.36735 4.91781 1.713L7.62321 5.02946L7.49405 5.12547L5.26898 2.39782C4.99455 2.06141 4.48916 1.99779 4.13309 2.25214C3.76565 2.51461 3.70543 3.02432 3.98739 3.36997L5.4785 5.19787C5.83648 4.9721 6.3108 4.97133 6.67274 5.22259L10.2065 7.6757C10.5189 7.89254 10.7054 8.24213 10.7054 8.6108V9.07562L12.4546 7.77545C12.5768 7.6846 12.6748 7.56744 12.7405 7.43353C12.8063 7.29963 12.8379 7.15278 12.8328 7.00499Z" fill="#0D2F3F"/>
</svg>
