<svg width="11" height="12" viewBox="0 0 11 12" fill="none" xmlns="http://www.w3.org/2000/svg">
<path d="M2.24502 11.3434C2.23748 10.968 2.56689 10.6607 2.96027 10.6607H4.48979V10.5268H1.39937C1.00599 10.5268 0.67658 10.2195 0.684118 9.8441C0.69141 9.48026 1.00263 9.1875 1.38549 9.1875H4.48979V9.05358H0.715375C0.322001 9.05358 -0.00741111 8.74629 0.00012686 8.37087C0.00741929 8.00707 0.318661 7.71431 0.701526 7.71431H4.48981V7.58039H1.4169C1.02352 7.58039 0.694111 7.2731 0.701649 6.89768C0.708941 6.53388 1.02018 6.24113 1.40305 6.24113H5.54196L4.77871 5.7113C4.46535 5.49377 4.39609 5.07499 4.62397 4.77586C4.85185 4.47677 5.2906 4.41066 5.60396 4.62816L8.63292 6.73085C8.7403 6.8054 8.82769 6.90314 8.88795 7.01609C8.9482 7.12903 8.97961 7.25398 8.97962 7.38073V10.6886C8.97962 11.0615 8.71085 11.3854 8.33059 11.4708L6.35473 11.9146C6.10196 11.9713 5.84315 12 5.58348 12H2.94642C2.56355 12 2.25231 11.7072 2.24502 11.3434ZM4.04355 6.05358H4.93786L4.66318 5.86289C4.207 5.54623 4.16442 4.9046 4.58535 4.53783L4.26605 4.14642C4.02437 3.85015 3.56799 3.79085 3.2623 4.02717C2.96606 4.25618 2.91528 4.67046 3.15051 4.95881L4.04355 6.05358ZM10.9995 6.00429L10.8767 2.4312C10.864 2.06156 10.5398 1.77176 10.1525 1.78388C9.76526 1.79602 9.46168 2.10548 9.4744 2.47512L9.50538 3.37547L6.96253 0.258258C6.72731 -0.0300934 6.29411 -0.0846325 5.98891 0.133383C5.67396 0.35836 5.62235 0.795258 5.86403 1.09153L7.75193 3.40587L7.64122 3.48816L5.31378 0.635016C5.07856 0.346664 4.64536 0.292125 4.34016 0.510141C4.02521 0.735118 3.97359 1.17202 4.21528 1.46829L6.5342 4.31098L6.42348 4.39327L4.51628 2.05528C4.28105 1.76693 3.84785 1.71239 3.54265 1.93041C3.2277 2.15538 3.17609 2.59228 3.41777 2.88856L4.69586 4.45533C5.00271 4.26181 5.40927 4.26115 5.71951 4.47652L8.74844 6.57919C9.01618 6.76505 9.17605 7.0647 9.17605 7.3807V7.77912L10.6754 6.66469C10.7802 6.58681 10.8641 6.48639 10.9205 6.37161C10.9768 6.25684 11.0039 6.13097 10.9995 6.00429Z" fill="#FCB26D"/>
</svg>
