<svg width="16" height="16" viewBox="0 0 512 512" fill="none" xmlns="http://www.w3.org/2000/svg">
<g transform="translate(256 256) scale(1.18) translate(-256 -256)">
<path d="M256 0C242.7 0 232 10.7 232 24V88C232 101.3 242.7 112 256 112C269.3 112 280 101.3 280 88V24C280 10.7 269.3 0 256 0ZM256 400C242.7 400 232 410.7 232 424V488C232 501.3 242.7 512 256 512C269.3 512 280 501.3 280 488V424C280 410.7 269.3 400 256 400ZM488 280C501.3 280 512 269.3 512 256C512 242.7 501.3 232 488 232H424C410.7 232 400 242.7 400 256C400 269.3 410.7 280 424 280H488ZM112 256C112 242.7 101.3 232 88 232H24C10.7 232 0 242.7 0 256C0 269.3 10.7 280 24 280H88C101.3 280 112 269.3 112 256ZM437 108.9C446.4 99.5 446.4 84.3 437 75C427.6 65.7 412.4 65.6 403.1 75L357.8 120.3C348.4 129.7 348.4 144.9 357.8 154.2C367.2 163.5 382.4 163.6 391.7 154.2L437 108.9ZM154.2 357.8C144.8 348.4 129.6 348.4 120.3 357.8L75 403.1C65.6 412.5 65.6 427.7 75 437C84.4 446.3 99.6 446.4 108.9 437L154.2 391.7C163.6 382.3 163.6 367.1 154.2 357.8ZM403.1 437C412.5 446.4 427.7 446.4 437 437C446.3 427.6 446.4 412.4 437 403.1L391.7 357.8C382.3 348.4 367.1 348.4 357.8 357.8C348.5 367.2 348.4 382.4 357.8 391.7L403.1 437ZM154.2 154.2C163.6 144.8 163.6 129.6 154.2 120.3L108.9 75C99.5 65.6 84.3 65.6 75 75C65.7 84.4 65.6 99.6 75 108.9L120.3 154.2C129.7 163.6 144.9 163.6 154.2 154.2ZM256 368C285.704 368 314.192 356.2 335.196 335.196C356.2 314.192 368 285.704 368 256C368 226.296 356.2 197.808 335.196 176.804C314.192 155.8 285.704 144 256 144C226.296 144 197.808 155.8 176.804 176.804C155.8 197.808 144 226.296 144 256C144 285.704 155.8 314.192 176.804 335.196C197.808 356.2 226.296 368 256 368Z" fill="black"/>
</g>
</svg>
