<svg width="32" height="32" viewBox="0 0 32 32" fill="none" xmlns="http://www.w3.org/2000/svg">
<circle cx="16" cy="16" r="16" fill="#2D6AB0"/>
<path d="M11.0292 25H7.29733V12.9823H11.0292V25ZM9.16125 11.343C7.96792 11.343 7 10.3546 7 9.16125C7 8.58805 7.2277 8.03833 7.63302 7.63302C8.03833 7.2277 8.58805 7 9.16125 7C9.73445 7 10.2842 7.2277 10.6895 7.63302C11.0948 8.03833 11.3225 8.58805 11.3225 9.16125C11.3225 10.3546 10.3542 11.343 9.16125 11.343ZM24.9964 25H21.2726V19.1499C21.2726 17.7556 21.2444 15.9677 19.3323 15.9677C17.392 15.9677 17.0947 17.4824 17.0947 19.0494V25H13.3668V12.9823H16.946V14.6216H16.9983C17.4965 13.6774 18.7135 12.681 20.5292 12.681C24.3061 12.681 25.0004 15.1681 25.0004 18.3985V25H24.9964Z" fill="white"/>
</svg>
