<svg width="48" height="48" viewBox="0 0 48 48" fill="none" xmlns="http://www.w3.org/2000/svg">
<path d="M29.4583 18.5419C34.248 23.3317 34.5561 30.9438 30.3723 36.0881C29.7871 36.8128 30.1113 36.4505 22.4092 44.1525C17.2815 49.2802 8.97804 49.2848 3.84767 44.1525C-1.28148 39.0253 -1.28364 30.7223 3.84767 25.5909C6.92013 22.5185 8.7072 20.7254 9.79226 19.6419C10.4919 18.9432 11.6983 19.4212 11.7128 20.4099C11.7303 21.6047 11.8795 22.7941 12.1578 23.9562C12.2483 24.3339 12.1323 24.7314 11.8576 25.006L7.55923 29.3034C4.48845 32.3761 4.47608 37.3558 7.55923 40.4409C10.6319 43.5117 15.6116 43.5241 18.6967 40.4409L25.7458 33.3909C28.8131 30.323 28.8186 25.3272 25.7458 22.2544C25.1233 21.6308 24.4002 21.1164 23.607 20.7329C23.1736 20.5236 22.9336 20.0532 22.9919 19.5755C23.119 18.5328 23.5821 17.5238 24.3808 16.725L24.7909 16.3149C25.1308 15.9749 25.6513 15.8842 26.0809 16.0998C27.2996 16.7114 28.4422 17.5258 29.4583 18.5419ZM44.1522 3.84753C39.0219 -1.28481 30.7184 -1.28021 25.5907 3.84753C17.8886 11.5496 18.2128 11.1872 17.6276 11.9119C13.4438 17.0562 13.7519 24.6683 18.5417 29.4581C19.5577 30.4742 20.7003 31.2886 21.919 31.9002C22.3486 32.1158 22.8691 32.025 23.209 31.6851L23.6191 31.275C24.4179 30.4763 24.8809 29.4672 25.008 28.4245C25.0663 27.9468 24.8264 27.4764 24.393 27.2671C23.5997 26.8836 22.8766 26.3693 22.2541 25.7456C19.1813 22.6728 19.1868 17.677 22.2541 14.6091L29.3032 7.55909C32.3883 4.47593 37.368 4.48831 40.4407 7.55909C43.5238 10.6442 43.5115 15.6239 40.4407 18.6966L36.1424 22.9941C35.8678 23.2687 35.7517 23.6662 35.8423 24.0439C36.1205 25.206 36.2697 26.3954 36.2872 27.5902C36.3017 28.5789 37.5081 29.0569 38.2077 28.3582C39.2928 27.2747 41.0799 25.4816 44.1523 22.4092C49.2835 17.2778 49.2814 8.9748 44.1522 3.84753V3.84753Z" fill="white"/>
</svg>
