<svg width="14" height="14" viewBox="0 0 14 14" fill="none" xmlns="http://www.w3.org/2000/svg">
<path d="M4.56723 8.45852C3.4702 8.52906 2.47461 8.94688 1.90969 10.4355C1.84543 10.6053 1.69094 10.7084 1.51074 10.7084C1.20695 10.7084 0.267695 9.95176 0 9.7691C0.000273438 12.0209 1.03742 14 3.50027 14C5.57457 14 7.00027 12.8032 7.00027 10.7136C7.00027 10.6285 6.9825 10.5473 6.97375 10.4639L4.56723 8.45852ZM12.5207 0C12.1062 0 11.7176 0.183477 11.4212 0.449805C5.83187 5.44277 5.25027 5.56008 5.25027 7.0298C5.25027 7.40441 5.33914 7.76152 5.48898 8.08801L7.23406 9.54215C7.43121 9.59137 7.63438 9.625 7.84629 9.625C9.54461 9.625 10.529 8.38168 13.6202 2.61242C13.822 2.22004 14.0003 1.79621 14.0003 1.35488C14.0003 0.564375 13.2893 0 12.5207 0Z" fill="#0D2F3F"/>
</svg>
