<svg width="518" height="83" viewBox="0 0 518 83" fill="none" xmlns="http://www.w3.org/2000/svg">
<path d="M0.490234 32.0859C2.07357 32.0859 3.39714 31.9746 4.46094 31.752C5.54948 31.5293 6.41536 31.2201 7.05859 30.8242C7.70182 30.4036 8.15951 29.9212 8.43164 29.377C8.70378 28.8079 8.83984 28.1895 8.83984 27.5215C8.83984 26.3835 8.67904 25.0228 8.35742 23.4395C8.03581 21.8314 7.68945 20.1243 7.31836 18.3184C6.94727 16.5124 6.60091 14.6693 6.2793 12.7891C5.95768 10.8841 5.79688 9.07812 5.79688 7.37109C5.79688 5.88672 6.00716 4.68685 6.42773 3.77148C6.84831 2.83138 7.41732 2.10156 8.13477 1.58203C8.85221 1.0625 9.68099 0.716146 10.6211 0.542969C11.5859 0.345052 12.5879 0.246094 13.627 0.246094C14.666 0.246094 15.7051 0.307943 16.7441 0.431641C17.7832 0.530599 18.7728 0.617188 19.7129 0.691406L19.6387 2.21289L17.1895 2.13867C16.472 2.11393 15.7298 2.17578 14.9629 2.32422C14.2207 2.44792 13.528 2.72005 12.8848 3.14062C12.2663 3.5612 11.7467 4.17969 11.3262 4.99609C10.9303 5.78776 10.7324 6.83919 10.7324 8.15039C10.7324 9.56055 10.8685 11.0944 11.1406 12.752C11.4128 14.3848 11.7096 16.0176 12.0312 17.6504C12.3776 19.2585 12.6868 20.7923 12.959 22.252C13.2559 23.7116 13.4043 24.9609 13.4043 26C13.4043 27.707 12.8971 29.1543 11.8828 30.3418C10.8685 31.5046 9.42122 32.3333 7.54102 32.8281C9.42122 33.3724 10.8685 34.2259 11.8828 35.3887C12.8971 36.5267 13.4043 37.9616 13.4043 39.6934C13.4043 40.7324 13.2559 41.9818 12.959 43.4414C12.6868 44.901 12.3776 46.4349 12.0312 48.043C11.7096 49.651 11.4128 51.2839 11.1406 52.9414C10.8685 54.5742 10.7324 56.1081 10.7324 57.543C10.7324 58.8542 10.9303 59.9056 11.3262 60.6973C11.7467 61.4889 12.2663 62.1074 12.8848 62.5527C13.528 62.9733 14.2207 63.2578 14.9629 63.4062C15.7298 63.5299 16.472 63.5794 17.1895 63.5547L19.6387 63.4805L19.7129 65.002C18.6491 65.1257 17.5729 65.2246 16.4844 65.2988C15.4206 65.3978 14.3939 65.4473 13.4043 65.4473C12.3405 65.4473 11.3385 65.3483 10.3984 65.1504C9.48307 64.9772 8.67904 64.6185 7.98633 64.0742C7.31836 63.5547 6.78646 62.8372 6.39062 61.9219C5.99479 60.9818 5.79688 59.7695 5.79688 58.2852C5.79688 56.5781 5.95768 54.7845 6.2793 52.9043C6.60091 51.0241 6.94727 49.181 7.31836 47.375C7.68945 45.569 8.03581 43.8743 8.35742 42.291C8.67904 40.6829 8.83984 39.3099 8.83984 38.1719C8.83984 37.5039 8.70378 36.8978 8.43164 36.3535C8.15951 35.7845 7.70182 35.3021 7.05859 34.9062C6.41536 34.4857 5.54948 34.1641 4.46094 33.9414C3.39714 33.7188 2.07357 33.6074 0.490234 33.6074V32.0859ZM76.5645 1.69336C79.1374 1.69336 81.3887 2.02734 83.3184 2.69531C85.2728 3.36328 86.9056 4.29102 88.2168 5.47852C89.528 6.64128 90.5052 8.01432 91.1484 9.59766C91.8164 11.1562 92.1504 12.8262 92.1504 14.6074C92.1504 16.5618 91.8164 18.4421 91.1484 20.248C90.5052 22.0293 89.6022 23.724 88.4395 25.332C87.3014 26.9401 85.9531 28.4492 84.3945 29.8594C82.8359 31.2695 81.166 32.556 79.3848 33.7188C77.6035 34.8815 75.748 35.9206 73.8184 36.8359C71.9134 37.7513 70.0208 38.5182 68.1406 39.1367C69.4766 40.3242 70.6888 41.7096 71.7773 43.293C72.8659 44.8516 73.9049 46.5215 74.8945 48.3027C75.8841 50.0592 76.8613 51.8652 77.8262 53.7207C78.791 55.5762 79.8053 57.3822 80.8691 59.1387C81.9329 60.8704 83.0833 62.5156 84.3203 64.0742C85.582 65.6328 87.0046 66.9935 88.5879 68.1562C90.196 69.3438 91.9896 70.2715 93.9688 70.9395C95.9479 71.6322 98.2116 71.9785 100.76 71.9785L100.908 73.5C100.587 73.5742 100.215 73.6361 99.7949 73.6855C99.4486 73.735 99.0156 73.7721 98.4961 73.7969C97.9766 73.8464 97.3828 73.8711 96.7148 73.8711C93.4987 73.8711 90.6908 73.5 88.291 72.7578C85.8913 72.0404 83.8008 71.0508 82.0195 69.7891C80.263 68.5521 78.7663 67.1048 77.5293 65.4473C76.2923 63.8145 75.2038 62.0827 74.2637 60.252C73.3483 58.3965 72.5443 56.5163 71.8516 54.6113C71.1589 52.6816 70.4661 50.8262 69.7734 49.0449C69.1055 47.2389 68.388 45.569 67.6211 44.0352C66.8789 42.4766 65.9883 41.153 64.9492 40.0645C64.4544 40.1882 63.9596 40.2871 63.4648 40.3613C62.9948 40.4355 62.5247 40.5098 62.0547 40.584C62.0299 42.3652 61.9928 43.9115 61.9434 45.2227C61.9186 46.5091 61.8815 47.6471 61.832 48.6367C61.7826 49.6016 61.7207 50.4551 61.6465 51.1973C61.5723 51.9395 61.4857 52.6569 61.3867 53.3496C61.1146 55.2793 60.7188 56.9245 60.1992 58.2852C59.6797 59.6211 59.0488 60.722 58.3066 61.5879C57.5645 62.429 56.7109 63.0475 55.7461 63.4434C54.806 63.8145 53.7669 64 52.6289 64C51.0208 64 49.5117 63.5299 48.1016 62.5898C46.7161 61.6497 45.5163 60.252 44.502 58.3965C43.4876 56.541 42.6836 54.2402 42.0898 51.4941C41.5208 48.748 41.2363 45.569 41.2363 41.957C41.2363 38.1719 41.6445 34.5475 42.4609 31.084C43.2773 27.5957 44.4277 24.3672 45.9121 21.3984C47.4212 18.4049 49.2396 15.696 51.3672 13.2715C53.4948 10.847 55.8574 8.78125 58.4551 7.07422C61.0775 5.34245 63.9102 4.01888 66.9531 3.10352C70.0208 2.16341 73.2246 1.69336 76.5645 1.69336ZM53.7793 37.7637C53.7793 37.1204 54.0267 36.5762 54.5215 36.1309C55.041 35.6608 55.7337 35.3516 56.5996 35.2031C56.5501 32.7786 56.4883 30.5645 56.4141 28.5605C56.3398 26.5566 56.278 24.8249 56.2285 23.3652C56.1543 21.6582 56.0924 20.1243 56.043 18.7637C56.2161 18.6152 56.4141 18.4915 56.6367 18.3926C56.8346 18.2936 57.0697 18.207 57.3418 18.1328C57.6139 18.0586 57.9479 18.0215 58.3438 18.0215C59.4818 18.0215 60.3971 18.2318 61.0898 18.6523C61.7826 19.0482 62.1289 19.7285 62.1289 20.6934C62.1289 23.6126 62.1289 26.3216 62.1289 28.8203C62.1289 31.2943 62.1042 33.6198 62.0547 35.7969C62.8464 36.0195 63.6009 36.304 64.3184 36.6504C65.0605 36.972 65.7533 37.3431 66.3965 37.7637C68.6725 37.1452 70.9609 36.2546 73.2617 35.0918C75.5625 33.929 77.6283 32.457 79.459 30.6758C81.3145 28.8698 82.8112 26.7422 83.9492 24.293C85.112 21.819 85.6934 18.974 85.6934 15.7578C85.6934 13.6549 85.3965 11.8613 84.8027 10.377C84.2337 8.89258 83.4544 7.68034 82.4648 6.74023C81.4753 5.77539 80.3001 5.07031 78.9395 4.625C77.6035 4.17969 76.181 3.95703 74.6719 3.95703C72.1484 3.95703 69.6621 4.32812 67.2129 5.07031C64.7884 5.78776 62.4876 6.88867 60.3105 8.37305C58.1582 9.85742 56.1667 11.7376 54.3359 14.0137C52.5299 16.2897 50.959 18.974 49.623 22.0664C48.3118 25.1589 47.2852 28.6719 46.543 32.6055C45.8008 36.5391 45.4297 40.918 45.4297 45.7422C45.4297 47.8451 45.5286 49.8861 45.7266 51.8652C45.9492 53.8197 46.3079 55.5638 46.8027 57.0977C47.2975 58.6068 47.9531 59.819 48.7695 60.7344C49.6107 61.6497 50.6497 62.1074 51.8867 62.1074C52.5547 62.1074 53.1855 61.9714 53.7793 61.6992C54.373 61.4271 54.8926 60.8704 55.3379 60.0293C55.7832 59.1634 56.1419 57.9388 56.4141 56.3555C56.6862 54.7474 56.8223 52.6074 56.8223 49.9355C56.8223 48.9707 56.8223 48.1172 56.8223 47.375C56.8223 46.6081 56.8223 45.8783 56.8223 45.1855C56.8223 44.4681 56.8099 43.7507 56.7852 43.0332C56.7852 42.3158 56.7728 41.5241 56.748 40.6582C55.8079 40.4355 55.0781 40.0768 54.5586 39.582C54.0391 39.0872 53.7793 38.4811 53.7793 37.7637ZM55.6719 37.7637C55.6719 38.0111 55.709 38.2214 55.7832 38.3945C55.8822 38.5677 56.179 38.7161 56.6738 38.8398V37.0957C56.0059 37.2441 55.6719 37.4668 55.6719 37.7637ZM62.0547 38.6914C62.2526 38.6914 62.4382 38.679 62.6113 38.6543C62.8092 38.6296 63.0072 38.5924 63.2051 38.543C63.0072 38.4193 62.8092 38.3079 62.6113 38.209C62.4382 38.11 62.2526 38.0234 62.0547 37.9492V38.6914ZM112.746 54.7969C112.746 56.207 112.87 57.3945 113.117 58.3594C113.365 59.3242 113.798 59.8066 114.416 59.8066C114.787 59.8066 115.183 59.6335 115.604 59.2871C116.049 58.916 116.556 58.3223 117.125 57.5059C117.694 56.6895 118.337 55.638 119.055 54.3516C119.797 53.0404 120.638 51.4447 121.578 49.5645L122.691 47.2637L124.213 48.4141L123.1 50.7148C122.061 52.793 121.083 54.6608 120.168 56.3184C119.277 57.9512 118.424 59.3366 117.607 60.4746C116.791 61.6126 115.987 62.4909 115.195 63.1094C114.428 63.7031 113.661 64 112.895 64C112.078 64 111.385 63.7773 110.816 63.332C110.272 62.8867 109.814 62.2806 109.443 61.5137C109.072 60.722 108.788 59.819 108.59 58.8047C108.392 57.7656 108.256 56.6647 108.182 55.502C107.588 56.6895 106.932 57.8027 106.215 58.8418C105.497 59.8561 104.743 60.7467 103.951 61.5137C103.184 62.2806 102.38 62.8867 101.539 63.332C100.698 63.7773 99.8568 64 99.0156 64C97.7786 64 96.5788 63.7402 95.416 63.2207C94.2533 62.7012 93.2142 61.9095 92.2988 60.8457C91.4082 59.7819 90.6908 58.446 90.1465 56.8379C89.6022 55.2051 89.3301 53.2878 89.3301 51.0859C89.3301 48.513 89.6641 46.1628 90.332 44.0352C91 41.8828 91.903 40.0397 93.041 38.5059C94.179 36.9473 95.4902 35.7474 96.9746 34.9062C98.459 34.0404 100.018 33.6074 101.65 33.6074C102.64 33.6074 103.555 33.8301 104.396 34.2754C105.238 34.7207 105.967 35.265 106.586 35.9082C107.229 36.5267 107.761 37.1947 108.182 37.9121C108.602 38.6048 108.887 39.1986 109.035 39.6934L109.48 36.0938C109.53 35.6237 109.753 35.2279 110.148 34.9062C110.569 34.5846 111.027 34.3372 111.521 34.1641C112.016 33.9661 112.499 33.8301 112.969 33.7559C113.439 33.6569 113.773 33.6074 113.971 33.6074C114.268 33.6074 114.465 33.6569 114.564 33.7559C114.663 33.8548 114.713 34.0527 114.713 34.3496C114.713 34.7207 114.602 35.4753 114.379 36.6133C114.181 37.7266 113.958 39.1615 113.711 40.918C113.488 42.6497 113.266 44.6908 113.043 47.041C112.845 49.3913 112.746 51.9766 112.746 54.7969ZM108.664 45C108.664 43.862 108.491 42.7487 108.145 41.6602C107.798 40.5469 107.328 39.5697 106.734 38.7285C106.141 37.8626 105.448 37.1699 104.656 36.6504C103.889 36.1309 103.073 35.8711 102.207 35.8711C101.143 35.8711 100.141 36.1803 99.2012 36.7988C98.2858 37.3926 97.4818 38.2461 96.7891 39.3594C96.1211 40.4479 95.5892 41.7715 95.1934 43.3301C94.7975 44.8639 94.5996 46.5586 94.5996 48.4141C94.5996 52.125 95.181 54.9577 96.3438 56.9121C97.5065 58.8418 99.0527 59.8066 100.982 59.8066C101.824 59.8066 102.689 59.4727 103.58 58.8047C104.495 58.112 105.324 57.1348 106.066 55.873C106.833 54.5866 107.452 53.028 107.922 51.1973C108.417 49.3665 108.664 47.3008 108.664 45ZM134.789 36.2422C134.072 36.2422 133.379 36.502 132.711 37.0215C132.068 37.5163 131.449 38.209 130.855 39.0996C130.262 39.9655 129.68 40.9922 129.111 42.1797C128.567 43.3424 128.023 44.5918 127.479 45.9277V46.373C127.404 48.5501 127.33 50.8633 127.256 53.3125C127.206 55.7617 127.182 58.4336 127.182 61.3281C127.182 61.8229 127.008 62.2435 126.662 62.5898C126.34 62.9115 125.957 63.1836 125.512 63.4062C125.066 63.6042 124.609 63.7526 124.139 63.8516C123.669 63.9505 123.285 64 122.988 64C122.617 64 122.271 63.8887 121.949 63.666C121.628 63.4434 121.467 62.9486 121.467 62.1816C121.467 61.8105 121.504 61.3529 121.578 60.8086C121.652 60.2396 121.751 59.6335 121.875 58.9902C121.974 58.347 122.098 57.6914 122.246 57.0234C122.37 56.3307 122.493 55.6875 122.617 55.0938C122.617 52.9909 122.617 51.0983 122.617 49.416C122.592 47.7337 122.58 46.237 122.58 44.9258C122.58 43.6146 122.58 42.4642 122.58 41.4746C122.555 40.485 122.543 39.6315 122.543 38.9141C122.543 37.7266 122.568 36.8607 122.617 36.3164C122.642 35.7474 122.691 35.3516 122.766 35.1289C122.889 34.7826 123.112 34.5104 123.434 34.3125C123.78 34.1146 124.139 33.9661 124.51 33.8672C124.881 33.7435 125.252 33.6693 125.623 33.6445C125.994 33.6198 126.279 33.6074 126.477 33.6074C126.947 33.6074 127.256 33.7435 127.404 34.0156C127.553 34.2878 127.627 34.7083 127.627 35.2773C127.627 36.5638 127.627 37.7266 127.627 38.7656C127.627 39.8047 127.602 40.8438 127.553 41.8828C128.023 40.7695 128.567 39.7181 129.186 38.7285C129.829 37.7142 130.534 36.8359 131.301 36.0938C132.068 35.3268 132.872 34.7207 133.713 34.2754C134.579 33.8301 135.469 33.6074 136.385 33.6074C137.498 33.6074 138.413 33.8424 139.131 34.3125C139.873 34.7578 140.454 35.3887 140.875 36.2051C141.32 37.0215 141.642 37.9863 141.84 39.0996C142.062 40.1882 142.211 41.3757 142.285 42.6621C142.978 41.4004 143.72 40.2253 144.512 39.1367C145.328 38.0234 146.182 37.0586 147.072 36.2422C147.988 35.4258 148.94 34.7826 149.93 34.3125C150.944 33.8424 151.995 33.6074 153.084 33.6074C154.964 33.6074 156.337 34.2012 157.203 35.3887C158.069 36.5514 158.502 38.1348 158.502 40.1387C158.502 41.4004 158.403 42.8105 158.205 44.3691C158.007 45.9277 157.797 47.5111 157.574 49.1191C157.352 50.7025 157.141 52.2611 156.943 53.7949C156.745 55.3288 156.646 56.7266 156.646 57.9883C156.646 59.5221 157.03 60.2891 157.797 60.2891C158.193 60.2891 158.626 60.054 159.096 59.584C159.566 59.0892 160.098 58.347 160.691 57.3574C161.31 56.3431 162.015 55.069 162.807 53.5352C163.623 52.0013 164.563 50.1706 165.627 48.043L165.998 47.2637L167.52 48.4141L167.148 49.1934C165.689 52.1126 164.439 54.5247 163.4 56.4297C162.386 58.3346 161.471 59.8561 160.654 60.9941C159.838 62.1074 159.059 62.8867 158.316 63.332C157.599 63.7773 156.795 64 155.904 64C155.385 64 154.878 63.9258 154.383 63.7773C153.888 63.6289 153.455 63.3691 153.084 62.998C152.713 62.627 152.416 62.1322 152.193 61.5137C151.971 60.8704 151.859 60.054 151.859 59.0645C151.859 57.5801 151.958 55.9102 152.156 54.0547C152.354 52.1992 152.577 50.3438 152.824 48.4883C153.072 46.6328 153.294 44.8887 153.492 43.2559C153.69 41.5983 153.789 40.25 153.789 39.2109C153.789 38.2956 153.591 37.5658 153.195 37.0215C152.799 36.4525 152.206 36.168 151.414 36.168C150.622 36.168 149.794 36.4772 148.928 37.0957C148.087 37.7142 147.258 38.5182 146.441 39.5078C145.65 40.4727 144.895 41.5612 144.178 42.7734C143.485 43.9857 142.879 45.1855 142.359 46.373C142.359 48.9707 142.335 51.2467 142.285 53.2012C142.236 55.1309 142.161 56.7637 142.062 58.0996C141.988 59.4355 141.877 60.4993 141.729 61.291C141.58 62.0579 141.419 62.5775 141.246 62.8496C141.122 63.0228 140.912 63.1836 140.615 63.332C140.318 63.4805 139.984 63.6042 139.613 63.7031C139.267 63.8021 138.921 63.8763 138.574 63.9258C138.253 63.9753 138.005 64 137.832 64C137.436 64 137.09 63.8887 136.793 63.666C136.521 63.4186 136.385 62.9486 136.385 62.2559C136.385 61.9342 136.41 61.5013 136.459 60.957C136.533 60.4128 136.62 59.8066 136.719 59.1387C136.818 58.4707 136.929 57.7533 137.053 56.9863C137.176 56.2194 137.3 55.4401 137.424 54.6484C137.449 53.9062 137.473 53.0775 137.498 52.1621C137.523 51.2467 137.548 50.3438 137.572 49.4531C137.597 48.5378 137.609 47.6719 137.609 46.8555C137.634 46.0143 137.646 45.2969 137.646 44.7031C137.646 43.4414 137.609 42.291 137.535 41.252C137.461 40.2129 137.312 39.3223 137.09 38.5801C136.892 37.8379 136.607 37.2689 136.236 36.873C135.865 36.4525 135.383 36.2422 134.789 36.2422ZM168.373 34.6465C168.472 34.3991 168.707 34.2012 169.078 34.0527C169.449 33.9043 169.845 33.8053 170.266 33.7559C170.686 33.6816 171.082 33.6445 171.453 33.6445C171.824 33.6198 172.072 33.6074 172.195 33.6074C172.566 33.6074 172.801 33.7064 172.9 33.9043C173.024 34.0775 173.086 34.362 173.086 34.7578C173.086 34.9557 173.024 35.401 172.9 36.0938C172.777 36.7617 172.616 37.6029 172.418 38.6172C172.245 39.6315 172.047 40.7819 171.824 42.0684C171.626 43.3548 171.428 44.6784 171.23 46.0391C171.057 47.3997 170.909 48.7852 170.785 50.1953C170.661 51.5807 170.6 52.8919 170.6 54.1289C170.6 56.2812 170.958 57.9017 171.676 58.9902C172.393 60.054 173.222 60.5859 174.162 60.5859C175.795 60.5859 177.242 59.3861 178.504 56.9863C179.766 54.5866 181.077 51.0736 182.438 46.4473V35.6484C182.438 35.2279 182.623 34.8939 182.994 34.6465C183.39 34.3743 183.835 34.1641 184.33 34.0156C184.825 33.8672 185.307 33.7682 185.777 33.7188C186.247 33.6445 186.581 33.6074 186.779 33.6074C187.546 33.6074 187.93 33.9909 187.93 34.7578C187.93 35.0299 187.905 35.4876 187.855 36.1309C187.831 36.7493 187.794 37.4915 187.744 38.3574C187.695 39.1986 187.645 40.1387 187.596 41.1777C187.571 42.1921 187.559 43.2188 187.559 44.2578V59.3613C188.004 58.7923 188.561 58.0378 189.229 57.0977C189.921 56.1576 190.626 55.1556 191.344 54.0918C192.086 53.028 192.791 51.9642 193.459 50.9004C194.152 49.8366 194.708 48.8841 195.129 48.043L195.537 47.2637L197.059 48.4141L196.65 49.1934C196.131 50.2324 195.512 51.3086 194.795 52.4219C194.077 53.5352 193.311 54.6608 192.494 55.7988C191.702 56.9121 190.874 58.0254 190.008 59.1387C189.167 60.2272 188.35 61.2663 187.559 62.2559V70.457C187.559 72.7331 187.348 74.6628 186.928 76.2461C186.532 77.8542 185.975 79.153 185.258 80.1426C184.54 81.1569 183.699 81.8867 182.734 82.332C181.77 82.7773 180.718 83 179.58 83C178.863 83 178.195 82.8887 177.576 82.666C176.982 82.4434 176.463 82.1094 176.018 81.6641C175.572 81.2435 175.226 80.724 174.979 80.1055C174.731 79.5117 174.607 78.8314 174.607 78.0645C174.607 76.9512 174.805 75.8379 175.201 74.7246C175.622 73.6113 176.191 72.4609 176.908 71.2734C177.65 70.0859 178.504 68.8613 179.469 67.5996C180.434 66.3626 181.473 65.0638 182.586 63.7031V52.459C181.967 54.1413 181.299 55.6999 180.582 57.1348C179.865 58.5449 179.085 59.7572 178.244 60.7715C177.403 61.7858 176.5 62.5775 175.535 63.1465C174.57 63.7155 173.531 64 172.418 64C171.626 64 170.81 63.8763 169.969 63.6289C169.152 63.3568 168.385 62.8743 167.668 62.1816C166.975 61.4889 166.406 60.5612 165.961 59.3984C165.516 58.2109 165.293 56.7018 165.293 54.8711C165.293 52.793 165.417 50.6777 165.664 48.5254C165.911 46.373 166.196 44.3691 166.518 42.5137C166.864 40.6582 167.21 39.0378 167.557 37.6523C167.903 36.2422 168.175 35.2402 168.373 34.6465ZM179.172 80.7363C179.568 80.7363 179.964 80.6497 180.359 80.4766C180.78 80.3281 181.151 79.9694 181.473 79.4004C181.794 78.8314 182.054 77.9902 182.252 76.877C182.475 75.7637 182.586 74.2546 182.586 72.3496V66.7461C181.745 67.7852 180.965 68.7871 180.248 69.752C179.555 70.7415 178.949 71.694 178.43 72.6094C177.91 73.5495 177.502 74.4525 177.205 75.3184C176.908 76.1842 176.76 77.0254 176.76 77.8418C176.76 78.6087 176.97 79.2767 177.391 79.8457C177.811 80.4395 178.405 80.7363 179.172 80.7363ZM218.062 54.7969C218.062 56.207 218.186 57.3945 218.434 58.3594C218.681 59.3242 219.114 59.8066 219.732 59.8066C220.104 59.8066 220.499 59.6335 220.92 59.2871C221.365 58.916 221.872 58.3223 222.441 57.5059C223.01 56.6895 223.654 55.638 224.371 54.3516C225.113 53.0404 225.954 51.4447 226.895 49.5645L228.008 47.2637L229.529 48.4141L228.416 50.7148C227.377 52.793 226.4 54.6608 225.484 56.3184C224.594 57.9512 223.74 59.3366 222.924 60.4746C222.107 61.6126 221.303 62.4909 220.512 63.1094C219.745 63.7031 218.978 64 218.211 64C217.395 64 216.702 63.7773 216.133 63.332C215.589 62.8867 215.131 62.2806 214.76 61.5137C214.389 60.722 214.104 59.819 213.906 58.8047C213.708 57.7656 213.572 56.6647 213.498 55.502C212.904 56.6895 212.249 57.8027 211.531 58.8418C210.814 59.8561 210.059 60.7467 209.268 61.5137C208.501 62.2806 207.697 62.8867 206.855 63.332C206.014 63.7773 205.173 64 204.332 64C203.095 64 201.895 63.7402 200.732 63.2207C199.57 62.7012 198.531 61.9095 197.615 60.8457C196.725 59.7819 196.007 58.446 195.463 56.8379C194.919 55.2051 194.646 53.2878 194.646 51.0859C194.646 48.513 194.98 46.1628 195.648 44.0352C196.316 41.8828 197.219 40.0397 198.357 38.5059C199.495 36.9473 200.807 35.7474 202.291 34.9062C203.775 34.0404 205.334 33.6074 206.967 33.6074C207.956 33.6074 208.872 33.8301 209.713 34.2754C210.554 34.7207 211.284 35.265 211.902 35.9082C212.546 36.5267 213.077 37.1947 213.498 37.9121C213.919 38.6048 214.203 39.1986 214.352 39.6934L214.797 36.0938C214.846 35.6237 215.069 35.2279 215.465 34.9062C215.885 34.5846 216.343 34.3372 216.838 34.1641C217.333 33.9661 217.815 33.8301 218.285 33.7559C218.755 33.6569 219.089 33.6074 219.287 33.6074C219.584 33.6074 219.782 33.6569 219.881 33.7559C219.98 33.8548 220.029 34.0527 220.029 34.3496C220.029 34.7207 219.918 35.4753 219.695 36.6133C219.497 37.7266 219.275 39.1615 219.027 40.918C218.805 42.6497 218.582 44.6908 218.359 47.041C218.161 49.3913 218.062 51.9766 218.062 54.7969ZM213.98 45C213.98 43.862 213.807 42.7487 213.461 41.6602C213.115 40.5469 212.645 39.5697 212.051 38.7285C211.457 37.8626 210.764 37.1699 209.973 36.6504C209.206 36.1309 208.389 35.8711 207.523 35.8711C206.46 35.8711 205.458 36.1803 204.518 36.7988C203.602 37.3926 202.798 38.2461 202.105 39.3594C201.438 40.4479 200.906 41.7715 200.51 43.3301C200.114 44.8639 199.916 46.5586 199.916 48.4141C199.916 52.125 200.497 54.9577 201.66 56.9121C202.823 58.8418 204.369 59.8066 206.299 59.8066C207.14 59.8066 208.006 59.4727 208.896 58.8047C209.812 58.112 210.641 57.1348 211.383 55.873C212.15 54.5866 212.768 53.028 213.238 51.1973C213.733 49.3665 213.98 47.3008 213.98 45ZM263.744 1.69336C265.896 1.69336 267.814 2.34896 269.496 3.66016C271.203 4.94661 272.638 6.92578 273.801 9.59766C274.988 12.2448 275.879 15.597 276.473 19.6543C277.091 23.6868 277.4 28.4616 277.4 33.9785C277.4 34.6217 277.388 35.2526 277.363 35.8711C277.339 36.4896 277.326 37.1204 277.326 37.7637L278.551 36.2422L280.072 37.3926L277.178 40.6582C276.386 47.8327 275.26 54.0671 273.801 59.3613C272.341 64.6556 270.671 69.0592 268.791 72.5723C266.911 76.0853 264.895 78.6953 262.742 80.4023C260.615 82.1341 258.462 83 256.285 83C255.395 83 254.59 82.8145 253.873 82.4434C253.156 82.097 252.537 81.6146 252.018 80.9961C251.498 80.3776 251.102 79.6478 250.83 78.8066C250.558 77.9902 250.422 77.112 250.422 76.1719C250.422 73.7969 250.941 71.36 251.98 68.8613C253.02 66.3874 254.442 63.8145 256.248 61.1426C258.079 58.4707 260.243 55.6999 262.742 52.8301C265.241 49.9603 267.95 46.9421 270.869 43.7754C270.993 41.5241 271.104 39.2109 271.203 36.8359C271.302 34.4609 271.352 31.8633 271.352 29.043C271.352 24.1693 271.166 20.0996 270.795 16.834C270.449 13.5684 269.941 10.9583 269.273 9.00391C268.605 7.02474 267.801 5.62695 266.861 4.81055C265.921 3.99414 264.882 3.58594 263.744 3.58594C262.235 3.58594 260.726 4.26628 259.217 5.62695C257.732 6.96289 256.396 8.91732 255.209 11.4902C254.021 14.0384 253.057 17.1803 252.314 20.916C251.572 24.627 251.201 28.8574 251.201 33.6074C251.201 36.1061 251.399 38.2214 251.795 39.9531C252.191 41.6849 252.723 43.0951 253.391 44.1836C254.059 45.2474 254.826 46.0267 255.691 46.5215C256.557 47.0163 257.46 47.2637 258.4 47.2637C259.736 47.2637 260.961 46.8184 262.074 45.9277C263.188 45.0124 264.152 43.8001 264.969 42.291C265.785 40.7819 266.416 39.0501 266.861 37.0957C267.307 35.1413 267.529 33.1126 267.529 31.0098C267.529 30.416 267.505 29.8594 267.455 29.3398C267.43 28.8203 267.393 28.3626 267.344 27.9668C267.27 27.5215 267.208 27.1133 267.158 26.7422L269.051 26.3711C269.1 26.6927 269.162 27.0762 269.236 27.5215C269.286 27.9173 269.323 28.3997 269.348 28.9688C269.397 29.513 269.422 30.1686 269.422 30.9355C269.422 33.2116 269.15 35.4505 268.605 37.6523C268.061 39.8294 267.282 41.7715 266.268 43.4785C265.253 45.1855 264.016 46.571 262.557 47.6348C261.122 48.6738 259.489 49.1934 257.658 49.1934C255.654 49.1934 253.873 48.7852 252.314 47.9688C250.781 47.1276 249.469 45.9401 248.381 44.4062C247.317 42.8477 246.501 40.9674 245.932 38.7656C245.387 36.5391 245.115 34.0527 245.115 31.3066C245.115 28.5853 245.375 25.9629 245.895 23.4395C246.439 20.916 247.169 18.5658 248.084 16.3887C248.999 14.1868 250.063 12.1829 251.275 10.377C252.512 8.57096 253.811 7.02474 255.172 5.73828C256.557 4.45182 257.98 3.46224 259.439 2.76953C260.924 2.05208 262.359 1.69336 263.744 1.69336ZM257.658 80.7363C258.227 80.7363 258.895 80.5508 259.662 80.1797C260.454 79.8333 261.27 79.1901 262.111 78.25C262.952 77.3099 263.806 76.0234 264.672 74.3906C265.538 72.7826 266.354 70.7292 267.121 68.2305C267.888 65.7318 268.581 62.7259 269.199 59.2129C269.818 55.6999 270.3 51.5931 270.646 46.8926C268.049 49.8366 265.736 52.4961 263.707 54.8711C261.678 57.2214 259.959 59.4727 258.549 61.625C257.139 63.7773 256.062 65.8926 255.32 67.9707C254.603 70.0736 254.244 72.3001 254.244 74.6504C254.244 76.4316 254.541 77.8913 255.135 79.0293C255.753 80.1673 256.594 80.7363 257.658 80.7363ZM305.641 54.7969C305.641 56.207 305.764 57.3945 306.012 58.3594C306.259 59.3242 306.692 59.8066 307.311 59.8066C307.682 59.8066 308.077 59.6335 308.498 59.2871C308.943 58.916 309.451 58.3223 310.02 57.5059C310.589 56.6895 311.232 55.638 311.949 54.3516C312.691 53.0404 313.533 51.4447 314.473 49.5645L315.586 47.2637L317.107 48.4141L315.994 50.7148C314.955 52.793 313.978 54.6608 313.062 56.3184C312.172 57.9512 311.318 59.3366 310.502 60.4746C309.686 61.6126 308.882 62.4909 308.09 63.1094C307.323 63.7031 306.556 64 305.789 64C304.973 64 304.28 63.7773 303.711 63.332C303.167 62.8867 302.709 62.2806 302.338 61.5137C301.967 60.722 301.682 59.819 301.484 58.8047C301.286 57.7656 301.15 56.6647 301.076 55.502C300.482 56.6895 299.827 57.8027 299.109 58.8418C298.392 59.8561 297.637 60.7467 296.846 61.5137C296.079 62.2806 295.275 62.8867 294.434 63.332C293.592 63.7773 292.751 64 291.91 64C290.673 64 289.473 63.7402 288.311 63.2207C287.148 62.7012 286.109 61.9095 285.193 60.8457C284.303 59.7819 283.585 58.446 283.041 56.8379C282.497 55.2051 282.225 53.2878 282.225 51.0859C282.225 48.513 282.559 46.1628 283.227 44.0352C283.895 41.8828 284.798 40.0397 285.936 38.5059C287.074 36.9473 288.385 35.7474 289.869 34.9062C291.354 34.0404 292.912 33.6074 294.545 33.6074C295.535 33.6074 296.45 33.8301 297.291 34.2754C298.132 34.7207 298.862 35.265 299.48 35.9082C300.124 36.5267 300.656 37.1947 301.076 37.9121C301.497 38.6048 301.781 39.1986 301.93 39.6934L302.375 36.0938C302.424 35.6237 302.647 35.2279 303.043 34.9062C303.464 34.5846 303.921 34.3372 304.416 34.1641C304.911 33.9661 305.393 33.8301 305.863 33.7559C306.333 33.6569 306.667 33.6074 306.865 33.6074C307.162 33.6074 307.36 33.6569 307.459 33.7559C307.558 33.8548 307.607 34.0527 307.607 34.3496C307.607 34.7207 307.496 35.4753 307.273 36.6133C307.076 37.7266 306.853 39.1615 306.605 40.918C306.383 42.6497 306.16 44.6908 305.938 47.041C305.74 49.3913 305.641 51.9766 305.641 54.7969ZM301.559 45C301.559 43.862 301.385 42.7487 301.039 41.6602C300.693 40.5469 300.223 39.5697 299.629 38.7285C299.035 37.8626 298.342 37.1699 297.551 36.6504C296.784 36.1309 295.967 35.8711 295.102 35.8711C294.038 35.8711 293.036 36.1803 292.096 36.7988C291.18 37.3926 290.376 38.2461 289.684 39.3594C289.016 40.4479 288.484 41.7715 288.088 43.3301C287.692 44.8639 287.494 46.5586 287.494 48.4141C287.494 52.125 288.076 54.9577 289.238 56.9121C290.401 58.8418 291.947 59.8066 293.877 59.8066C294.718 59.8066 295.584 59.4727 296.475 58.8047C297.39 58.112 298.219 57.1348 298.961 55.873C299.728 54.5866 300.346 53.028 300.816 51.1973C301.311 49.3665 301.559 47.3008 301.559 45ZM317.924 34.6465C318.023 34.3991 318.258 34.2012 318.629 34.0527C319 33.9043 319.396 33.8053 319.816 33.7559C320.237 33.6816 320.633 33.6445 321.004 33.6445C321.375 33.6198 321.622 33.6074 321.746 33.6074C322.117 33.6074 322.352 33.7064 322.451 33.9043C322.575 34.0775 322.637 34.362 322.637 34.7578C322.637 34.9557 322.575 35.401 322.451 36.0938C322.327 36.7617 322.167 37.6029 321.969 38.6172C321.796 39.6315 321.598 40.7819 321.375 42.0684C321.177 43.3548 320.979 44.6784 320.781 46.0391C320.608 47.3997 320.46 48.7852 320.336 50.1953C320.212 51.5807 320.15 52.8919 320.15 54.1289C320.15 56.2812 320.509 57.9017 321.227 58.9902C321.944 60.054 322.773 60.5859 323.713 60.5859C325.346 60.5859 326.793 59.3861 328.055 56.9863C329.316 54.5866 330.628 51.0736 331.988 46.4473V35.6484C331.988 35.2279 332.174 34.8939 332.545 34.6465C332.941 34.3743 333.386 34.1641 333.881 34.0156C334.376 33.8672 334.858 33.7682 335.328 33.7188C335.798 33.6445 336.132 33.6074 336.33 33.6074C337.097 33.6074 337.48 33.9909 337.48 34.7578C337.48 35.0299 337.456 35.4876 337.406 36.1309C337.382 36.7493 337.344 37.4915 337.295 38.3574C337.245 39.1986 337.196 40.1387 337.146 41.1777C337.122 42.1921 337.109 43.2188 337.109 44.2578V59.3613C337.555 58.7923 338.111 58.0378 338.779 57.0977C339.472 56.1576 340.177 55.1556 340.895 54.0918C341.637 53.028 342.342 51.9642 343.01 50.9004C343.702 49.8366 344.259 48.8841 344.68 48.043L345.088 47.2637L346.609 48.4141L346.201 49.1934C345.682 50.2324 345.063 51.3086 344.346 52.4219C343.628 53.5352 342.861 54.6608 342.045 55.7988C341.253 56.9121 340.424 58.0254 339.559 59.1387C338.717 60.2272 337.901 61.2663 337.109 62.2559V70.457C337.109 72.7331 336.899 74.6628 336.479 76.2461C336.083 77.8542 335.526 79.153 334.809 80.1426C334.091 81.1569 333.25 81.8867 332.285 82.332C331.32 82.7773 330.269 83 329.131 83C328.413 83 327.745 82.8887 327.127 82.666C326.533 82.4434 326.014 82.1094 325.568 81.6641C325.123 81.2435 324.777 80.724 324.529 80.1055C324.282 79.5117 324.158 78.8314 324.158 78.0645C324.158 76.9512 324.356 75.8379 324.752 74.7246C325.173 73.6113 325.742 72.4609 326.459 71.2734C327.201 70.0859 328.055 68.8613 329.02 67.5996C329.984 66.3626 331.023 65.0638 332.137 63.7031V52.459C331.518 54.1413 330.85 55.6999 330.133 57.1348C329.415 58.5449 328.636 59.7572 327.795 60.7715C326.954 61.7858 326.051 62.5775 325.086 63.1465C324.121 63.7155 323.082 64 321.969 64C321.177 64 320.361 63.8763 319.52 63.6289C318.703 63.3568 317.936 62.8743 317.219 62.1816C316.526 61.4889 315.957 60.5612 315.512 59.3984C315.066 58.2109 314.844 56.7018 314.844 54.8711C314.844 52.793 314.967 50.6777 315.215 48.5254C315.462 46.373 315.747 44.3691 316.068 42.5137C316.415 40.6582 316.761 39.0378 317.107 37.6523C317.454 36.2422 317.726 35.2402 317.924 34.6465ZM328.723 80.7363C329.118 80.7363 329.514 80.6497 329.91 80.4766C330.331 80.3281 330.702 79.9694 331.023 79.4004C331.345 78.8314 331.605 77.9902 331.803 76.877C332.025 75.7637 332.137 74.2546 332.137 72.3496V66.7461C331.296 67.7852 330.516 68.7871 329.799 69.752C329.106 70.7415 328.5 71.694 327.98 72.6094C327.461 73.5495 327.053 74.4525 326.756 75.3184C326.459 76.1842 326.311 77.0254 326.311 77.8418C326.311 78.6087 326.521 79.2767 326.941 79.8457C327.362 80.4395 327.956 80.7363 328.723 80.7363ZM367.613 54.7969C367.613 56.207 367.737 57.3945 367.984 58.3594C368.232 59.3242 368.665 59.8066 369.283 59.8066C369.654 59.8066 370.05 59.6335 370.471 59.2871C370.916 58.916 371.423 58.3223 371.992 57.5059C372.561 56.6895 373.204 55.638 373.922 54.3516C374.664 53.0404 375.505 51.4447 376.445 49.5645L377.559 47.2637L379.08 48.4141L377.967 50.7148C376.928 52.793 375.951 54.6608 375.035 56.3184C374.145 57.9512 373.291 59.3366 372.475 60.4746C371.658 61.6126 370.854 62.4909 370.062 63.1094C369.296 63.7031 368.529 64 367.762 64C366.945 64 366.253 63.7773 365.684 63.332C365.139 62.8867 364.682 62.2806 364.311 61.5137C363.939 60.722 363.655 59.819 363.457 58.8047C363.259 57.7656 363.123 56.6647 363.049 55.502C362.455 56.6895 361.799 57.8027 361.082 58.8418C360.365 59.8561 359.61 60.7467 358.818 61.5137C358.051 62.2806 357.247 62.8867 356.406 63.332C355.565 63.7773 354.724 64 353.883 64C352.646 64 351.446 63.7402 350.283 63.2207C349.12 62.7012 348.081 61.9095 347.166 60.8457C346.275 59.7819 345.558 58.446 345.014 56.8379C344.469 55.2051 344.197 53.2878 344.197 51.0859C344.197 48.513 344.531 46.1628 345.199 44.0352C345.867 41.8828 346.77 40.0397 347.908 38.5059C349.046 36.9473 350.357 35.7474 351.842 34.9062C353.326 34.0404 354.885 33.6074 356.518 33.6074C357.507 33.6074 358.423 33.8301 359.264 34.2754C360.105 34.7207 360.835 35.265 361.453 35.9082C362.096 36.5267 362.628 37.1947 363.049 37.9121C363.469 38.6048 363.754 39.1986 363.902 39.6934L364.348 36.0938C364.397 35.6237 364.62 35.2279 365.016 34.9062C365.436 34.5846 365.894 34.3372 366.389 34.1641C366.883 33.9661 367.366 33.8301 367.836 33.7559C368.306 33.6569 368.64 33.6074 368.838 33.6074C369.135 33.6074 369.333 33.6569 369.432 33.7559C369.531 33.8548 369.58 34.0527 369.58 34.3496C369.58 34.7207 369.469 35.4753 369.246 36.6133C369.048 37.7266 368.826 39.1615 368.578 40.918C368.355 42.6497 368.133 44.6908 367.91 47.041C367.712 49.3913 367.613 51.9766 367.613 54.7969ZM363.531 45C363.531 43.862 363.358 42.7487 363.012 41.6602C362.665 40.5469 362.195 39.5697 361.602 38.7285C361.008 37.8626 360.315 37.1699 359.523 36.6504C358.757 36.1309 357.94 35.8711 357.074 35.8711C356.01 35.8711 355.008 36.1803 354.068 36.7988C353.153 37.3926 352.349 38.2461 351.656 39.3594C350.988 40.4479 350.456 41.7715 350.061 43.3301C349.665 44.8639 349.467 46.5586 349.467 48.4141C349.467 52.125 350.048 54.9577 351.211 56.9121C352.374 58.8418 353.92 59.8066 355.85 59.8066C356.691 59.8066 357.557 59.4727 358.447 58.8047C359.363 58.112 360.191 57.1348 360.934 55.873C361.701 54.5866 362.319 53.028 362.789 51.1973C363.284 49.3665 363.531 47.3008 363.531 45ZM377.188 48.043L377.559 47.2637C377.93 46.5215 378.264 45.7546 378.561 44.9629C378.882 44.1712 379.154 43.429 379.377 42.7363C379.6 42.0189 379.773 41.388 379.896 40.8438C380.02 40.2747 380.107 39.8418 380.156 39.5449C379.513 39.4707 378.895 39.3099 378.301 39.0625C377.707 38.8151 377.188 38.4811 376.742 38.0605C376.297 37.64 375.951 37.1452 375.703 36.5762C375.431 36.0072 375.295 35.3639 375.295 34.6465C375.295 34.0775 375.394 33.5703 375.592 33.125C375.79 32.6797 376.062 32.3086 376.408 32.0117C376.73 31.7148 377.101 31.4922 377.521 31.3438C377.917 31.1706 378.338 31.084 378.783 31.084C379.377 31.084 379.896 31.2077 380.342 31.4551C380.787 31.7025 381.158 32.0365 381.455 32.457C381.752 32.8529 381.975 33.3229 382.123 33.8672C382.271 34.3867 382.346 34.931 382.346 35.5C383.038 35.5 383.781 35.401 384.572 35.2031C385.389 35.0052 386.205 34.7949 387.021 34.5723C387.838 34.3249 388.642 34.1022 389.434 33.9043C390.225 33.7064 390.955 33.6074 391.623 33.6074C392.192 33.6074 392.65 33.7311 392.996 33.9785C393.342 34.2012 393.516 34.5846 393.516 35.1289C393.516 35.5247 393.392 36.1803 393.145 37.0957C392.922 38.0111 392.637 39.0749 392.291 40.2871C391.945 41.4993 391.561 42.8229 391.141 44.2578C390.745 45.668 390.374 47.1029 390.027 48.5625C389.681 49.9974 389.384 51.3952 389.137 52.7559C388.914 54.1165 388.803 55.3288 388.803 56.3926C388.803 57.7285 388.951 58.6315 389.248 59.1016C389.545 59.5716 390.077 59.8066 390.844 59.8066C391.165 59.8066 391.561 59.6706 392.031 59.3984C392.526 59.1016 393.12 58.5449 393.812 57.7285C394.505 56.8874 395.322 55.6999 396.262 54.166C397.227 52.6074 398.34 50.5664 399.602 48.043L399.973 47.2637L401.494 48.4141L401.123 49.1934C399.639 52.1621 398.315 54.599 397.152 56.5039C395.99 58.4089 394.913 59.918 393.924 61.0312C392.959 62.1445 392.044 62.9238 391.178 63.3691C390.312 63.7897 389.446 64 388.58 64C387.12 64 385.933 63.4434 385.018 62.3301C384.102 61.2168 383.645 59.4974 383.645 57.1719C383.645 55.9102 383.818 54.599 384.164 53.2383C384.51 51.8776 384.943 50.5293 385.463 49.1934C385.982 47.8327 386.564 46.4967 387.207 45.1855C387.85 43.8743 388.456 42.6374 389.025 41.4746C389.619 40.2871 390.151 39.1862 390.621 38.1719C391.091 37.1576 391.425 36.2669 391.623 35.5L391.4 35.2773C391.005 35.2773 390.473 35.4876 389.805 35.9082C389.137 36.3288 388.382 36.8112 387.541 37.3555C386.725 37.875 385.846 38.3698 384.906 38.8398C383.966 39.3099 383.014 39.5944 382.049 39.6934C381.999 40.0397 381.888 40.5469 381.715 41.2148C381.566 41.8828 381.356 42.625 381.084 43.4414C380.812 44.2578 380.503 45.099 380.156 45.9648C379.81 46.8307 379.451 47.6471 379.08 48.4141L378.709 49.1934L377.188 48.043ZM379.006 33.1621C378.783 33.1621 378.598 33.2363 378.449 33.3848C378.301 33.5332 378.227 33.7064 378.227 33.9043C378.227 34.2012 378.301 34.4609 378.449 34.6836C378.598 34.8815 378.783 35.0547 379.006 35.2031C379.229 35.3268 379.451 35.4258 379.674 35.5C379.921 35.5495 380.132 35.5742 380.305 35.5742C380.305 34.8815 380.193 34.3125 379.971 33.8672C379.748 33.3971 379.426 33.1621 379.006 33.1621ZM422.461 54.7969C422.461 56.207 422.585 57.3945 422.832 58.3594C423.079 59.3242 423.512 59.8066 424.131 59.8066C424.502 59.8066 424.898 59.6335 425.318 59.2871C425.764 58.916 426.271 58.3223 426.84 57.5059C427.409 56.6895 428.052 55.638 428.77 54.3516C429.512 53.0404 430.353 51.4447 431.293 49.5645L432.406 47.2637L433.928 48.4141L432.814 50.7148C431.775 52.793 430.798 54.6608 429.883 56.3184C428.992 57.9512 428.139 59.3366 427.322 60.4746C426.506 61.6126 425.702 62.4909 424.91 63.1094C424.143 63.7031 423.376 64 422.609 64C421.793 64 421.1 63.7773 420.531 63.332C419.987 62.8867 419.529 62.2806 419.158 61.5137C418.787 60.722 418.503 59.819 418.305 58.8047C418.107 57.7656 417.971 56.6647 417.896 55.502C417.303 56.6895 416.647 57.8027 415.93 58.8418C415.212 59.8561 414.458 60.7467 413.666 61.5137C412.899 62.2806 412.095 62.8867 411.254 63.332C410.413 63.7773 409.572 64 408.73 64C407.493 64 406.294 63.7402 405.131 63.2207C403.968 62.7012 402.929 61.9095 402.014 60.8457C401.123 59.7819 400.406 58.446 399.861 56.8379C399.317 55.2051 399.045 53.2878 399.045 51.0859C399.045 48.513 399.379 46.1628 400.047 44.0352C400.715 41.8828 401.618 40.0397 402.756 38.5059C403.894 36.9473 405.205 35.7474 406.689 34.9062C408.174 34.0404 409.732 33.6074 411.365 33.6074C412.355 33.6074 413.27 33.8301 414.111 34.2754C414.952 34.7207 415.682 35.265 416.301 35.9082C416.944 36.5267 417.476 37.1947 417.896 37.9121C418.317 38.6048 418.602 39.1986 418.75 39.6934L419.195 36.0938C419.245 35.6237 419.467 35.2279 419.863 34.9062C420.284 34.5846 420.742 34.3372 421.236 34.1641C421.731 33.9661 422.214 33.8301 422.684 33.7559C423.154 33.6569 423.488 33.6074 423.686 33.6074C423.982 33.6074 424.18 33.6569 424.279 33.7559C424.378 33.8548 424.428 34.0527 424.428 34.3496C424.428 34.7207 424.316 35.4753 424.094 36.6133C423.896 37.7266 423.673 39.1615 423.426 40.918C423.203 42.6497 422.98 44.6908 422.758 47.041C422.56 49.3913 422.461 51.9766 422.461 54.7969ZM418.379 45C418.379 43.862 418.206 42.7487 417.859 41.6602C417.513 40.5469 417.043 39.5697 416.449 38.7285C415.855 37.8626 415.163 37.1699 414.371 36.6504C413.604 36.1309 412.788 35.8711 411.922 35.8711C410.858 35.8711 409.856 36.1803 408.916 36.7988C408.001 37.3926 407.197 38.2461 406.504 39.3594C405.836 40.4479 405.304 41.7715 404.908 43.3301C404.512 44.8639 404.314 46.5586 404.314 48.4141C404.314 52.125 404.896 54.9577 406.059 56.9121C407.221 58.8418 408.768 59.8066 410.697 59.8066C411.538 59.8066 412.404 59.4727 413.295 58.8047C414.21 58.112 415.039 57.1348 415.781 55.873C416.548 54.5866 417.167 53.028 417.637 51.1973C418.132 49.3665 418.379 47.3008 418.379 45ZM444.504 36.2422C443.786 36.2422 443.094 36.502 442.426 37.0215C441.783 37.5163 441.164 38.209 440.57 39.0996C439.977 39.9655 439.395 40.9922 438.826 42.1797C438.282 43.3424 437.738 44.5918 437.193 45.9277V46.373C437.119 48.5501 437.045 50.8633 436.971 53.3125C436.921 55.7617 436.896 58.4336 436.896 61.3281C436.896 61.8229 436.723 62.2435 436.377 62.5898C436.055 62.9115 435.672 63.1836 435.227 63.4062C434.781 63.6042 434.324 63.7526 433.854 63.8516C433.383 63.9505 433 64 432.703 64C432.332 64 431.986 63.8887 431.664 63.666C431.342 63.4434 431.182 62.9486 431.182 62.1816C431.182 61.8105 431.219 61.3529 431.293 60.8086C431.367 60.2396 431.466 59.6335 431.59 58.9902C431.689 58.347 431.812 57.6914 431.961 57.0234C432.085 56.3307 432.208 55.6875 432.332 55.0938C432.332 52.9909 432.332 51.0983 432.332 49.416C432.307 47.7337 432.295 46.237 432.295 44.9258C432.295 43.6146 432.295 42.4642 432.295 41.4746C432.27 40.485 432.258 39.6315 432.258 38.9141C432.258 37.7266 432.283 36.8607 432.332 36.3164C432.357 35.7474 432.406 35.3516 432.48 35.1289C432.604 34.7826 432.827 34.5104 433.148 34.3125C433.495 34.1146 433.854 33.9661 434.225 33.8672C434.596 33.7435 434.967 33.6693 435.338 33.6445C435.709 33.6198 435.993 33.6074 436.191 33.6074C436.661 33.6074 436.971 33.7435 437.119 34.0156C437.268 34.2878 437.342 34.7083 437.342 35.2773C437.342 36.5638 437.342 37.7266 437.342 38.7656C437.342 39.8047 437.317 40.8438 437.268 41.8828C437.738 40.7695 438.282 39.7181 438.9 38.7285C439.544 37.7142 440.249 36.8359 441.016 36.0938C441.783 35.3268 442.587 34.7207 443.428 34.2754C444.294 33.8301 445.184 33.6074 446.1 33.6074C447.213 33.6074 448.128 33.8424 448.846 34.3125C449.588 34.7578 450.169 35.3887 450.59 36.2051C451.035 37.0215 451.357 37.9863 451.555 39.0996C451.777 40.1882 451.926 41.3757 452 42.6621C452.693 41.4004 453.435 40.2253 454.227 39.1367C455.043 38.0234 455.896 37.0586 456.787 36.2422C457.702 35.4258 458.655 34.7826 459.645 34.3125C460.659 33.8424 461.71 33.6074 462.799 33.6074C464.679 33.6074 466.052 34.2012 466.918 35.3887C467.784 36.5514 468.217 38.1348 468.217 40.1387C468.217 41.4004 468.118 42.8105 467.92 44.3691C467.722 45.9277 467.512 47.5111 467.289 49.1191C467.066 50.7025 466.856 52.2611 466.658 53.7949C466.46 55.3288 466.361 56.7266 466.361 57.9883C466.361 59.5221 466.745 60.2891 467.512 60.2891C467.908 60.2891 468.34 60.054 468.811 59.584C469.281 59.0892 469.812 58.347 470.406 57.3574C471.025 56.3431 471.73 55.069 472.521 53.5352C473.338 52.0013 474.278 50.1706 475.342 48.043L475.713 47.2637L477.234 48.4141L476.863 49.1934C475.404 52.1126 474.154 54.5247 473.115 56.4297C472.101 58.3346 471.186 59.8561 470.369 60.9941C469.553 62.1074 468.773 62.8867 468.031 63.332C467.314 63.7773 466.51 64 465.619 64C465.1 64 464.592 63.9258 464.098 63.7773C463.603 63.6289 463.17 63.3691 462.799 62.998C462.428 62.627 462.131 62.1322 461.908 61.5137C461.686 60.8704 461.574 60.054 461.574 59.0645C461.574 57.5801 461.673 55.9102 461.871 54.0547C462.069 52.1992 462.292 50.3438 462.539 48.4883C462.786 46.6328 463.009 44.8887 463.207 43.2559C463.405 41.5983 463.504 40.25 463.504 39.2109C463.504 38.2956 463.306 37.5658 462.91 37.0215C462.514 36.4525 461.921 36.168 461.129 36.168C460.337 36.168 459.508 36.4772 458.643 37.0957C457.801 37.7142 456.973 38.5182 456.156 39.5078C455.365 40.4727 454.61 41.5612 453.893 42.7734C453.2 43.9857 452.594 45.1855 452.074 46.373C452.074 48.9707 452.049 51.2467 452 53.2012C451.951 55.1309 451.876 56.7637 451.777 58.0996C451.703 59.4355 451.592 60.4993 451.443 61.291C451.295 62.0579 451.134 62.5775 450.961 62.8496C450.837 63.0228 450.627 63.1836 450.33 63.332C450.033 63.4805 449.699 63.6042 449.328 63.7031C448.982 63.8021 448.635 63.8763 448.289 63.9258C447.967 63.9753 447.72 64 447.547 64C447.151 64 446.805 63.8887 446.508 63.666C446.236 63.4186 446.1 62.9486 446.1 62.2559C446.1 61.9342 446.124 61.5013 446.174 60.957C446.248 60.4128 446.335 59.8066 446.434 59.1387C446.533 58.4707 446.644 57.7533 446.768 56.9863C446.891 56.2194 447.015 55.4401 447.139 54.6484C447.163 53.9062 447.188 53.0775 447.213 52.1621C447.238 51.2467 447.262 50.3438 447.287 49.4531C447.312 48.5378 447.324 47.6719 447.324 46.8555C447.349 46.0143 447.361 45.2969 447.361 44.7031C447.361 43.4414 447.324 42.291 447.25 41.252C447.176 40.2129 447.027 39.3223 446.805 38.5801C446.607 37.8379 446.322 37.2689 445.951 36.873C445.58 36.4525 445.098 36.2422 444.504 36.2422ZM517.201 33.6074C515.593 33.6074 514.257 33.7188 513.193 33.9414C512.13 34.1641 511.276 34.4857 510.633 34.9062C509.99 35.3021 509.532 35.7845 509.26 36.3535C508.988 36.8978 508.852 37.5039 508.852 38.1719C508.852 39.3099 509.012 40.6829 509.334 42.291C509.656 43.8743 510.002 45.569 510.373 47.375C510.744 49.181 511.09 51.0241 511.412 52.9043C511.734 54.7845 511.895 56.5781 511.895 58.2852C511.895 59.7695 511.697 60.9818 511.301 61.9219C510.905 62.8372 510.361 63.5547 509.668 64.0742C509 64.6185 508.196 64.9772 507.256 65.1504C506.34 65.3483 505.351 65.4473 504.287 65.4473C503.298 65.4473 502.258 65.3978 501.17 65.2988C500.106 65.2246 499.042 65.1257 497.979 65.002L498.053 63.4805L500.502 63.5547C501.219 63.5794 501.949 63.5299 502.691 63.4062C503.458 63.2578 504.151 62.9733 504.77 62.5527C505.413 62.1074 505.932 61.4889 506.328 60.6973C506.749 59.9056 506.959 58.8542 506.959 57.543C506.959 56.1081 506.811 54.5742 506.514 52.9414C506.242 51.2839 505.932 49.651 505.586 48.043C505.264 46.4349 504.967 44.901 504.695 43.4414C504.423 41.9818 504.287 40.7324 504.287 39.6934C504.287 37.9616 504.794 36.5267 505.809 35.3887C506.823 34.2259 508.27 33.3724 510.15 32.8281C508.27 32.3333 506.823 31.5046 505.809 30.3418C504.794 29.1543 504.287 27.707 504.287 26C504.287 24.9609 504.423 23.7116 504.695 22.252C504.967 20.7923 505.264 19.2585 505.586 17.6504C505.932 16.0176 506.242 14.3848 506.514 12.752C506.811 11.0944 506.959 9.56055 506.959 8.15039C506.959 6.83919 506.749 5.78776 506.328 4.99609C505.932 4.17969 505.413 3.5612 504.77 3.14062C504.151 2.72005 503.458 2.44792 502.691 2.32422C501.949 2.17578 501.219 2.11393 500.502 2.13867L498.053 2.21289L497.979 0.691406C498.919 0.617188 499.908 0.530599 500.947 0.431641C501.986 0.307943 503.001 0.246094 503.99 0.246094C505.054 0.246094 506.056 0.345052 506.996 0.542969C507.961 0.716146 508.802 1.0625 509.52 1.58203C510.237 2.10156 510.806 2.83138 511.227 3.77148C511.672 4.68685 511.895 5.88672 511.895 7.37109C511.895 9.07812 511.734 10.8841 511.412 12.7891C511.09 14.6693 510.744 16.5124 510.373 18.3184C510.002 20.1243 509.656 21.8314 509.334 23.4395C509.012 25.0228 508.852 26.3835 508.852 27.5215C508.852 28.1895 508.988 28.8079 509.26 29.377C509.532 29.9212 509.99 30.4036 510.633 30.8242C511.276 31.2201 512.13 31.5293 513.193 31.752C514.257 31.9746 515.593 32.0859 517.201 32.0859V33.6074Z" fill="url(#paint0_linear_777_133)"/>
<defs>
<linearGradient id="paint0_linear_777_133" x1="14.446" y1="7.32886" x2="562.547" y2="69.7989" gradientUnits="userSpaceOnUse">
<stop stop-color="#AAD3E0"/>
<stop offset="0.145833" stop-color="#C088BB"/>
<stop offset="0.307292" stop-color="#FB296B"/>
<stop offset="0.46875" stop-color="#FFB862"/>
<stop offset="0.588542" stop-color="#F5A388"/>
<stop offset="0.6875" stop-color="#FBD1BB"/>
<stop offset="0.838542" stop-color="#A1B9CF"/>
<stop offset="1" stop-color="#C8D1CE"/>
</linearGradient>
</defs>
</svg>
