<svg width="14" height="14" viewBox="0 0 14 14" fill="none" xmlns="http://www.w3.org/2000/svg">
<path fill-rule="evenodd" clip-rule="evenodd" d="M3.91996 6.36125C4.14746 6.58875 5.03996 7.525 5.03996 7.525L5.52996 7.0175L4.75996 6.22125L6.23871 4.64625C6.23871 4.64625 5.57371 3.99875 5.86246 4.2525C6.14246 3.21125 5.88871 2.05625 5.10121 1.2425C4.31371 0.4375 3.20246 0.175 2.20496 0.44625L3.89371 2.19625L3.44746 3.91125L1.79371 4.36625L0.104959 2.61625C-0.166291 3.64875 0.087459 4.795 0.874959 5.6C1.69746 6.4575 2.87871 6.7025 3.91996 6.36125ZM9.55496 8.05875L7.51621 10.0712L10.8762 13.5538C11.1475 13.8425 11.515 13.9825 11.8737 13.9825C12.2325 13.9825 12.5912 13.8425 12.8712 13.5538C13.4225 12.985 13.4225 12.0662 12.8712 11.4975L9.55496 8.05875ZM14 2.21375L11.8562 0L5.53871 6.5275L6.30871 7.32375L2.53746 11.2262L1.67121 11.69L0.454959 13.6763L0.761209 14L2.68621 12.74L3.13246 11.8475L6.91246 7.945L7.68246 8.74125L14 2.21375Z" fill="#0D2F3F"/>
</svg>
