<svg width="12" height="12" viewBox="0 0 12 12" fill="none" xmlns="http://www.w3.org/2000/svg">
<path fill-rule="evenodd" clip-rule="evenodd" d="M3.35997 5.4525C3.55497 5.6475 4.31997 6.45 4.31997 6.45L4.73997 6.015L4.07997 5.3325L5.34747 3.9825C5.34747 3.9825 4.77747 3.4275 5.02497 3.645C5.26497 2.7525 5.04747 1.7625 4.37247 1.065C3.69747 0.375 2.74497 0.15 1.88997 0.3825L3.33747 1.8825L2.95497 3.3525L1.53747 3.7425L0.0899649 2.2425C-0.142535 3.1275 0.0749649 4.11 0.749965 4.8C1.45496 5.535 2.46747 5.745 3.35997 5.4525ZM8.18997 6.9075L6.44247 8.6325L9.32247 11.6175C9.55497 11.865 9.86997 11.985 10.1775 11.985C10.485 11.985 10.7925 11.865 11.0325 11.6175C11.505 11.13 11.505 10.3425 11.0325 9.855L8.18997 6.9075ZM12 1.8975L10.1625 0L4.74747 5.595L5.40747 6.2775L2.17497 9.6225L1.43246 10.02L0.389965 11.7225L0.652465 12L2.30247 10.92L2.68497 10.155L5.92497 6.81L6.58497 7.4925L12 1.8975Z" fill="#FCB26D"/>
</svg>
