<svg width="38" height="40" viewBox="0 0 38 40" fill="none" xmlns="http://www.w3.org/2000/svg">
<path d="M17.5207 39.3895L0.613465 22.3751C-0.204488 21.5524 -0.204488 20.2221 0.613465 19.4081L2.58873 17.4214C3.40669 16.5987 4.72063 16.5987 5.53859 17.4214L19 30.8998L32.4614 17.4214C33.2794 16.6074 34.5933 16.6074 35.4113 17.4214L37.3865 19.4081C38.2045 20.2308 38.2045 21.5612 37.3865 22.3751L20.4793 39.3895C19.6613 40.2035 18.3387 40.2035 17.5207 39.3895ZM20.4793 22.5852L37.3865 5.57081C38.2045 4.7481 38.2045 3.41776 37.3865 2.6038L35.4113 0.617034C34.5933 -0.205678 33.2794 -0.205678 32.4614 0.617034L19 14.0955L5.53859 0.617034C4.72063 -0.196926 3.40669 -0.196926 2.58873 0.617034L0.613465 2.6038C-0.204488 3.42651 -0.204488 4.75685 0.613465 5.57081L17.5207 22.5852C18.3387 23.3992 19.6613 23.3992 20.4793 22.5852Z" fill="white"/>
</svg>
