<svg width="26" height="20" viewBox="0 0 26 20" fill="none" xmlns="http://www.w3.org/2000/svg">
<path d="M11.3304 19.9805L8.85251 19.2891C8.59253 19.2187 8.44629 18.957 8.51941 18.707L14.0643 0.338417C14.1374 0.0883983 14.4096 -0.0522373 14.6696 0.0180805L17.1475 0.709539C17.4075 0.779857 17.5537 1.04159 17.4806 1.29161L11.9357 19.6602C11.8585 19.9102 11.5904 20.0547 11.3304 19.9805V19.9805ZM6.69955 15.5974L8.4666 13.7847C8.65346 13.5933 8.64128 13.2886 8.43411 13.1128L4.75377 9.9993L8.43411 6.88578C8.64128 6.70999 8.65753 6.40528 8.4666 6.21386L6.69955 4.40122C6.51676 4.21371 6.20803 4.20199 6.00898 4.38169L0.155378 9.65552C-0.0517928 9.83913 -0.0517928 10.1556 0.155378 10.3392L6.00898 15.6169C6.20803 15.7966 6.51676 15.7888 6.69955 15.5974V15.5974ZM19.991 15.6208L25.8446 10.3431C26.0518 10.1595 26.0518 9.84304 25.8446 9.65943L19.991 4.37778C19.796 4.20199 19.4873 4.2098 19.3004 4.39732L17.5334 6.20995C17.3465 6.40137 17.3587 6.70608 17.5659 6.88188L21.2462 9.9993L17.5659 13.1128C17.3587 13.2886 17.3425 13.5933 17.5334 13.7847L19.3004 15.5974C19.4832 15.7888 19.792 15.7966 19.991 15.6208V15.6208Z" fill="black"/>
</svg>
