<svg width="20" height="20" viewBox="0 0 20 20" fill="none" xmlns="http://www.w3.org/2000/svg">
<path d="M17.8517 13.4537C16.8732 14.2478 15.7958 14.906 14.6275 15.3697L16.7517 19.0489L18.8591 19.9489C19.2423 20.1126 19.6751 19.8626 19.7251 19.4489L19.9993 17.1736L17.8517 13.4537V13.4537ZM19.5114 9.76001C19.7013 9.4604 19.5852 9.05728 19.2751 8.88541L18.1786 8.27722C17.8864 8.11511 17.5298 8.22019 17.3482 8.50065C15.7423 10.9823 12.9783 12.4998 9.99985 12.4998C9.06509 12.4998 8.15495 12.3338 7.28856 12.0494L9.91977 7.49168C9.94711 7.49246 9.97211 7.49988 9.99946 7.49988C10.0268 7.49988 10.0522 7.49246 10.0791 7.49168L12.0748 10.9487C13.2947 10.5987 14.4013 9.94281 15.3017 9.03775L13.2787 5.53351C13.5697 5.00109 13.7498 4.39954 13.7498 3.74994C13.7498 1.67888 12.0709 0 9.99985 0C7.92878 0 6.2499 1.67888 6.2499 3.74994C6.2499 4.39954 6.42998 5.00109 6.7206 5.53351L4.05267 10.1549C3.56244 9.70141 3.11675 9.19439 2.73707 8.63151C2.54996 8.35417 2.19137 8.25573 1.90192 8.42331L0.817956 9.05103C0.51132 9.22837 0.402728 9.63305 0.597647 9.92875C1.20584 10.8522 1.9527 11.6557 2.78433 12.3514L0 17.174L0.274215 19.4493C0.324214 19.863 0.75702 20.113 1.14022 19.9493L3.24761 19.0493L6.01319 14.2592C7.27059 14.7373 8.61784 14.9998 9.99985 14.9998C13.8689 14.9998 17.456 13.0072 19.5114 9.76001ZM9.99985 2.49996C10.6901 2.49996 11.2498 3.05972 11.2498 3.74994C11.2498 4.44017 10.6901 4.99992 9.99985 4.99992C9.30962 4.99992 8.74986 4.44017 8.74986 3.74994C8.74986 3.05972 9.30962 2.49996 9.99985 2.49996Z" fill="black"/>
</svg>
