<svg width="24" height="24" viewBox="0 0 24 24" fill="none" xmlns="http://www.w3.org/2000/svg">
<path d="M15.6516 19.9781C15.6234 19.9781 15.5953 19.9828 15.5672 19.9875C15.1172 20.0719 14.6672 20.1141 14.2266 20.1141C10.4156 20.1141 7.19531 17.0156 7.19531 13.0641C7.19531 10.5234 8.55469 8.18906 10.7625 6.93281C11.1047 6.74062 11.0156 6.225 10.6313 6.15C10.0875 6.05156 9.53906 6 8.99063 6C4.02656 6 0 10.0266 0 15C0 19.9688 4.02188 24 8.99063 24C11.7656 24 14.2969 22.7391 15.975 20.6672C16.2047 20.3859 15.9891 19.9781 15.6516 19.9781V19.9781ZM8.99063 22.5C4.86094 22.5 1.5 19.1344 1.5 15C1.5 11.3203 4.1625 8.25 7.65937 7.61719C6.4125 9.12656 5.7 11.0484 5.7 13.0641C5.7 17.2734 8.75156 20.7844 12.7547 21.4875C11.6297 22.1437 10.3359 22.5 8.99063 22.5ZM23.5875 9.07969L21.3094 7.94062L20.1703 5.6625C19.9172 5.15625 19.0828 5.15625 18.8297 5.6625L17.6906 7.94062L15.4125 9.07969C15.1594 9.20625 15 9.46406 15 9.75C15 10.0359 15.1594 10.2938 15.4125 10.4203L17.6906 11.5594L18.8297 13.8375C18.9563 14.0906 19.2141 14.25 19.5 14.25C19.7859 14.25 20.0437 14.0906 20.1703 13.8375L21.3094 11.5594L23.5875 10.4203C23.8406 10.2938 24 10.0359 24 9.75C24 9.46406 23.8406 9.20625 23.5875 9.07969V9.07969ZM20.4141 10.3312C20.2688 10.4016 20.1516 10.5234 20.0766 10.6688L19.5 11.8219L18.9234 10.6641C18.8484 10.5188 18.7312 10.4016 18.5859 10.3266L17.4281 9.75L18.5859 9.16875C18.7312 9.09844 18.8484 8.97656 18.9234 8.83125L19.5 7.67344L20.0766 8.83125C20.1516 8.97656 20.2688 9.09375 20.4141 9.16875L21.5719 9.75L20.4141 10.3312V10.3312ZM14.25 4.5L15 3L16.5 2.25L15 1.5L14.25 0L13.5 1.5L12 2.25L13.5 3L14.25 4.5Z" fill="black"/>
</svg>
