<svg width="24" height="24" viewBox="0 0 24 24" fill="none" xmlns="http://www.w3.org/2000/svg">
<path d="M21.914 11.9995L15.5201 12.9448L20.5858 16.9597L14.5758 14.5753L16.9602 20.5853L12.9454 15.5196L12 21.9135L11.0546 15.5196L7.03974 20.5853L9.42414 14.5753L3.41419 16.9597L8.47984 12.9448L2.08594 11.9995L8.47984 11.0541L3.41419 7.03922L9.42414 9.42362L7.03974 3.41367L11.0546 8.4804L12 2.08542L12.9454 8.4804L16.9602 3.41367L14.5758 9.42362L20.5858 7.04029L15.5201 11.0541L21.914 11.9995Z" fill="white"/>
<path d="M23.9548 15.2916L15.9304 14.3086L20.7057 20.8315L14.2505 15.9606L15.1303 24L11.9704 16.5585L8.70733 23.9548L9.69142 15.9305L3.16738 20.7057L8.03836 14.2505L0 15.1303L7.44145 11.9704L0.0440959 8.7084L8.06847 9.69142L3.29321 3.16845L9.74842 8.03836L8.86865 0L12.0285 7.44145L15.2905 0.0440959L14.3075 8.06955L20.8315 3.29321L15.9606 9.74842L23.9989 8.86865L16.5575 12.0285L23.9548 15.2916Z" fill="white"/>
<path d="M15.7435 15.7436C17.8113 13.6759 17.8113 10.3235 15.7435 8.25575C13.6758 6.18803 10.3234 6.18803 8.25566 8.25575C6.18794 10.3235 6.18794 13.6759 8.25566 15.7436C10.3234 17.8114 13.6758 17.8114 15.7435 15.7436Z" fill="white" stroke="black" stroke-width="0.5" stroke-miterlimit="10"/>
</svg>
